<svg width="734" height="258" viewBox="0 0 734 258" fill="none" xmlns="http://www.w3.org/2000/svg">
<rect x="73" y="1" width="589" height="256" rx="4" fill="white" stroke="#75C27D" stroke-width="2"/>
<path d="M269.437 150V128.256H220.189L216.589 112.56L271.885 48.48H290.605V110.256H304.141V128.256H290.605V150H269.437ZM242.653 110.256H269.437V78.864L242.653 110.256ZM473.906 150V128.256H424.658L421.058 112.56L476.354 48.48H495.074V110.256H508.61V128.256H495.074V150H473.906ZM447.122 110.256H473.906V78.864L447.122 110.256Z" fill="#75C27D"/>
<path d="M396.222 136.896C387.87 146.784 377.07 151.728 363.822 151.728C350.574 151.728 339.822 146.784 331.566 136.896C323.31 127.008 319.182 114.576 319.182 99.6C319.182 84.72 323.358 72.336 331.71 62.448C340.062 52.464 350.862 47.472 364.11 47.472C377.262 47.472 387.966 52.416 396.222 62.304C404.574 72.192 408.75 84.624 408.75 99.6C408.75 114.48 404.574 126.912 396.222 136.896ZM347.982 122.64C352.11 128.688 357.486 131.712 364.11 131.712C370.734 131.712 376.014 128.736 379.95 122.784C383.982 116.736 385.998 109.008 385.998 99.6C385.998 90.384 383.934 82.752 379.806 76.704C375.678 70.56 370.35 67.488 363.822 67.488C357.294 67.488 352.014 70.512 347.982 76.56C343.95 82.512 341.934 90.192 341.934 99.6C341.934 108.912 343.95 116.592 347.982 122.64Z" fill="#ECAA73"/>
<path d="M196.712 154.4C201 154.4 204.36 155.424 206.792 157.472C209.224 159.52 210.44 162.336 210.44 165.92C210.44 169.504 209.224 172.32 206.792 174.368C204.36 176.384 201 177.392 196.712 177.392H187.688V188H184.136V154.4H196.712ZM196.616 174.272C199.944 174.272 202.488 173.552 204.248 172.112C206.008 170.64 206.888 168.576 206.888 165.92C206.888 163.2 206.008 161.12 204.248 159.68C202.488 158.208 199.944 157.472 196.616 157.472H187.688V174.272H196.616ZM225.998 162.56C229.294 162.56 231.822 163.392 233.582 165.056C235.342 166.688 236.222 169.12 236.222 172.352V188H232.958V184.064C232.19 185.376 231.054 186.4 229.55 187.136C228.078 187.872 226.318 188.24 224.27 188.24C221.454 188.24 219.214 187.568 217.55 186.224C215.886 184.88 215.054 183.104 215.054 180.896C215.054 178.752 215.822 177.024 217.358 175.712C218.926 174.4 221.406 173.744 224.798 173.744H232.814V172.208C232.814 170.032 232.206 168.384 230.99 167.264C229.774 166.112 227.998 165.536 225.662 165.536C224.062 165.536 222.526 165.808 221.054 166.352C219.582 166.864 218.318 167.584 217.262 168.512L215.726 165.968C217.006 164.88 218.542 164.048 220.334 163.472C222.126 162.864 224.014 162.56 225.998 162.56ZM224.798 185.552C226.718 185.552 228.366 185.12 229.742 184.256C231.118 183.36 232.142 182.08 232.814 180.416V176.288H224.894C220.574 176.288 218.414 177.792 218.414 180.8C218.414 182.272 218.974 183.44 220.094 184.304C221.214 185.136 222.782 185.552 224.798 185.552ZM268.948 162.752V184.928C268.948 189.216 267.892 192.384 265.78 194.432C263.7 196.512 260.548 197.552 256.324 197.552C253.988 197.552 251.764 197.2 249.652 196.496C247.572 195.824 245.876 194.88 244.564 193.664L246.292 191.072C247.508 192.16 248.98 193.008 250.708 193.616C252.468 194.224 254.308 194.528 256.228 194.528C259.428 194.528 261.78 193.776 263.284 192.272C264.788 190.8 265.54 188.496 265.54 185.36V182.144C264.484 183.744 263.092 184.96 261.364 185.792C259.668 186.624 257.78 187.04 255.7 187.04C253.332 187.04 251.172 186.528 249.22 185.504C247.3 184.448 245.78 182.992 244.66 181.136C243.572 179.248 243.028 177.12 243.028 174.752C243.028 172.384 243.572 170.272 244.66 168.416C245.78 166.56 247.3 165.12 249.22 164.096C251.14 163.072 253.3 162.56 255.7 162.56C257.844 162.56 259.78 162.992 261.508 163.856C263.236 164.72 264.628 165.968 265.684 167.6V162.752H268.948ZM256.036 184.016C257.86 184.016 259.508 183.632 260.98 182.864C262.452 182.064 263.588 180.96 264.388 179.552C265.22 178.144 265.636 176.544 265.636 174.752C265.636 172.96 265.22 171.376 264.388 170C263.588 168.592 262.452 167.504 260.98 166.736C259.54 165.936 257.892 165.536 256.036 165.536C254.212 165.536 252.564 165.92 251.092 166.688C249.652 167.456 248.516 168.544 247.684 169.952C246.884 171.36 246.484 172.96 246.484 174.752C246.484 176.544 246.884 178.144 247.684 179.552C248.516 180.96 249.652 182.064 251.092 182.864C252.564 183.632 254.212 184.016 256.036 184.016ZM300.463 176.432H279.343C279.535 179.056 280.543 181.184 282.367 182.816C284.191 184.416 286.495 185.216 289.279 185.216C290.847 185.216 292.287 184.944 293.599 184.4C294.911 183.824 296.047 182.992 297.007 181.904L298.927 184.112C297.807 185.456 296.399 186.48 294.703 187.184C293.039 187.888 291.199 188.24 289.183 188.24C286.591 188.24 284.287 187.696 282.271 186.608C280.287 185.488 278.735 183.952 277.615 182C276.495 180.048 275.935 177.84 275.935 175.376C275.935 172.912 276.463 170.704 277.519 168.752C278.607 166.8 280.079 165.28 281.935 164.192C283.823 163.104 285.935 162.56 288.271 162.56C290.607 162.56 292.703 163.104 294.559 164.192C296.415 165.28 297.871 166.8 298.927 168.752C299.983 170.672 300.511 172.88 300.511 175.376L300.463 176.432ZM288.271 165.488C285.839 165.488 283.791 166.272 282.127 167.84C280.495 169.376 279.567 171.392 279.343 173.888H297.247C297.023 171.392 296.079 169.376 294.415 167.84C292.783 166.272 290.735 165.488 288.271 165.488ZM332.874 162.56C336.042 162.56 338.554 163.488 340.41 165.344C342.298 167.168 343.242 169.84 343.242 173.36V188H339.834V173.696C339.834 171.072 339.178 169.072 337.866 167.696C336.554 166.32 334.682 165.632 332.25 165.632C329.53 165.632 327.37 166.448 325.77 168.08C324.202 169.68 323.418 171.904 323.418 174.752V188H320.01V162.752H323.274V167.408C324.202 165.872 325.482 164.688 327.114 163.856C328.778 162.992 330.698 162.56 332.874 162.56ZM362.908 188.24C360.476 188.24 358.284 187.696 356.332 186.608C354.38 185.488 352.844 183.952 351.724 182C350.604 180.048 350.044 177.84 350.044 175.376C350.044 172.912 350.604 170.704 351.724 168.752C352.844 166.8 354.38 165.28 356.332 164.192C358.284 163.104 360.476 162.56 362.908 162.56C365.34 162.56 367.532 163.104 369.484 164.192C371.436 165.28 372.956 166.8 374.044 168.752C375.164 170.704 375.724 172.912 375.724 175.376C375.724 177.84 375.164 180.048 374.044 182C372.956 183.952 371.436 185.488 369.484 186.608C367.532 187.696 365.34 188.24 362.908 188.24ZM362.908 185.216C364.7 185.216 366.3 184.816 367.708 184.016C369.148 183.184 370.268 182.016 371.068 180.512C371.868 179.008 372.268 177.296 372.268 175.376C372.268 173.456 371.868 171.744 371.068 170.24C370.268 168.736 369.148 167.584 367.708 166.784C366.3 165.952 364.7 165.536 362.908 165.536C361.116 165.536 359.5 165.952 358.06 166.784C356.652 167.584 355.532 168.736 354.7 170.24C353.9 171.744 353.5 173.456 353.5 175.376C353.5 177.296 353.9 179.008 354.7 180.512C355.532 182.016 356.652 183.184 358.06 184.016C359.5 184.816 361.116 185.216 362.908 185.216ZM395.978 186.464C395.338 187.04 394.538 187.488 393.578 187.808C392.65 188.096 391.674 188.24 390.65 188.24C388.282 188.24 386.458 187.6 385.178 186.32C383.898 185.04 383.258 183.232 383.258 180.896V165.632H378.746V162.752H383.258V157.232H386.666V162.752H394.346V165.632H386.666V180.704C386.666 182.208 387.034 183.36 387.77 184.16C388.538 184.928 389.626 185.312 391.034 185.312C391.738 185.312 392.41 185.2 393.05 184.976C393.722 184.752 394.298 184.432 394.778 184.016L395.978 186.464ZM423.096 155.024C421.624 155.024 420.504 155.424 419.736 156.224C419 157.024 418.632 158.208 418.632 159.776V162.752H426.408V165.632H418.728V188H415.32V165.632H410.808V162.752H415.32V159.632C415.32 157.328 415.976 155.504 417.288 154.16C418.632 152.816 420.52 152.144 422.952 152.144C423.912 152.144 424.84 152.288 425.736 152.576C426.632 152.832 427.384 153.216 427.992 153.728L426.84 156.272C425.848 155.44 424.6 155.024 423.096 155.024ZM440.908 188.24C438.476 188.24 436.284 187.696 434.332 186.608C432.38 185.488 430.844 183.952 429.724 182C428.604 180.048 428.044 177.84 428.044 175.376C428.044 172.912 428.604 170.704 429.724 168.752C430.844 166.8 432.38 165.28 434.332 164.192C436.284 163.104 438.476 162.56 440.908 162.56C443.34 162.56 445.532 163.104 447.484 164.192C449.436 165.28 450.956 166.8 452.044 168.752C453.164 170.704 453.724 172.912 453.724 175.376C453.724 177.84 453.164 180.048 452.044 182C450.956 183.952 449.436 185.488 447.484 186.608C445.532 187.696 443.34 188.24 440.908 188.24ZM440.908 185.216C442.7 185.216 444.3 184.816 445.708 184.016C447.148 183.184 448.268 182.016 449.068 180.512C449.868 179.008 450.268 177.296 450.268 175.376C450.268 173.456 449.868 171.744 449.068 170.24C448.268 168.736 447.148 167.584 445.708 166.784C444.3 165.952 442.7 165.536 440.908 165.536C439.116 165.536 437.5 165.952 436.06 166.784C434.652 167.584 433.532 168.736 432.7 170.24C431.9 171.744 431.5 173.456 431.5 175.376C431.5 177.296 431.9 179.008 432.7 180.512C433.532 182.016 434.652 183.184 436.06 184.016C437.5 184.816 439.116 185.216 440.908 185.216ZM483.434 162.752V188H480.17V183.392C479.274 184.928 478.042 186.128 476.474 186.992C474.906 187.824 473.114 188.24 471.098 188.24C467.802 188.24 465.194 187.328 463.274 185.504C461.386 183.648 460.442 180.944 460.442 177.392V162.752H463.85V177.056C463.85 179.712 464.506 181.728 465.818 183.104C467.13 184.48 469.002 185.168 471.434 185.168C474.09 185.168 476.186 184.368 477.722 182.768C479.258 181.136 480.026 178.88 480.026 176V162.752H483.434ZM505.843 162.56C509.011 162.56 511.523 163.488 513.379 165.344C515.267 167.168 516.211 169.84 516.211 173.36V188H512.803V173.696C512.803 171.072 512.147 169.072 510.835 167.696C509.523 166.32 507.651 165.632 505.219 165.632C502.499 165.632 500.339 166.448 498.739 168.08C497.171 169.68 496.387 171.904 496.387 174.752V188H492.979V162.752H496.243V167.408C497.171 165.872 498.451 164.688 500.083 163.856C501.747 162.992 503.667 162.56 505.843 162.56ZM548.597 152.384V188H545.333V183.008C544.309 184.704 542.949 186 541.253 186.896C539.589 187.792 537.701 188.24 535.589 188.24C533.221 188.24 531.077 187.696 529.157 186.608C527.237 185.52 525.733 184 524.645 182.048C523.557 180.096 523.013 177.872 523.013 175.376C523.013 172.88 523.557 170.656 524.645 168.704C525.733 166.752 527.237 165.248 529.157 164.192C531.077 163.104 533.221 162.56 535.589 162.56C537.637 162.56 539.477 162.992 541.109 163.856C542.773 164.688 544.133 165.92 545.189 167.552V152.384H548.597ZM535.877 185.216C537.637 185.216 539.221 184.816 540.629 184.016C542.069 183.184 543.189 182.016 543.989 180.512C544.821 179.008 545.237 177.296 545.237 175.376C545.237 173.456 544.821 171.744 543.989 170.24C543.189 168.736 542.069 167.584 540.629 166.784C539.221 165.952 537.637 165.536 535.877 165.536C534.085 165.536 532.469 165.952 531.029 166.784C529.621 167.584 528.501 168.736 527.669 170.24C526.869 171.744 526.469 173.456 526.469 175.376C526.469 177.296 526.869 179.008 527.669 180.512C528.501 182.016 529.621 183.184 531.029 184.016C532.469 184.816 534.085 185.216 535.877 185.216Z" fill="#75C27D"/>
<path d="M198.712 155.4C203 155.4 206.36 156.424 208.792 158.472C211.224 160.52 212.44 163.336 212.44 166.92C212.44 170.504 211.224 173.32 208.792 175.368C206.36 177.384 203 178.392 198.712 178.392H189.688V189H186.136V155.4H198.712ZM198.616 175.272C201.944 175.272 204.488 174.552 206.248 173.112C208.008 171.64 208.888 169.576 208.888 166.92C208.888 164.2 208.008 162.12 206.248 160.68C204.488 159.208 201.944 158.472 198.616 158.472H189.688V175.272H198.616ZM227.998 163.56C231.294 163.56 233.822 164.392 235.582 166.056C237.342 167.688 238.222 170.12 238.222 173.352V189H234.958V185.064C234.19 186.376 233.054 187.4 231.55 188.136C230.078 188.872 228.318 189.24 226.27 189.24C223.454 189.24 221.214 188.568 219.55 187.224C217.886 185.88 217.054 184.104 217.054 181.896C217.054 179.752 217.822 178.024 219.358 176.712C220.926 175.4 223.406 174.744 226.798 174.744H234.814V173.208C234.814 171.032 234.206 169.384 232.99 168.264C231.774 167.112 229.998 166.536 227.662 166.536C226.062 166.536 224.526 166.808 223.054 167.352C221.582 167.864 220.318 168.584 219.262 169.512L217.726 166.968C219.006 165.88 220.542 165.048 222.334 164.472C224.126 163.864 226.014 163.56 227.998 163.56ZM226.798 186.552C228.718 186.552 230.366 186.12 231.742 185.256C233.118 184.36 234.142 183.08 234.814 181.416V177.288H226.894C222.574 177.288 220.414 178.792 220.414 181.8C220.414 183.272 220.974 184.44 222.094 185.304C223.214 186.136 224.782 186.552 226.798 186.552ZM270.948 163.752V185.928C270.948 190.216 269.892 193.384 267.78 195.432C265.7 197.512 262.548 198.552 258.324 198.552C255.988 198.552 253.764 198.2 251.652 197.496C249.572 196.824 247.876 195.88 246.564 194.664L248.292 192.072C249.508 193.16 250.98 194.008 252.708 194.616C254.468 195.224 256.308 195.528 258.228 195.528C261.428 195.528 263.78 194.776 265.284 193.272C266.788 191.8 267.54 189.496 267.54 186.36V183.144C266.484 184.744 265.092 185.96 263.364 186.792C261.668 187.624 259.78 188.04 257.7 188.04C255.332 188.04 253.172 187.528 251.22 186.504C249.3 185.448 247.78 183.992 246.66 182.136C245.572 180.248 245.028 178.12 245.028 175.752C245.028 173.384 245.572 171.272 246.66 169.416C247.78 167.56 249.3 166.12 251.22 165.096C253.14 164.072 255.3 163.56 257.7 163.56C259.844 163.56 261.78 163.992 263.508 164.856C265.236 165.72 266.628 166.968 267.684 168.6V163.752H270.948ZM258.036 185.016C259.86 185.016 261.508 184.632 262.98 183.864C264.452 183.064 265.588 181.96 266.388 180.552C267.22 179.144 267.636 177.544 267.636 175.752C267.636 173.96 267.22 172.376 266.388 171C265.588 169.592 264.452 168.504 262.98 167.736C261.54 166.936 259.892 166.536 258.036 166.536C256.212 166.536 254.564 166.92 253.092 167.688C251.652 168.456 250.516 169.544 249.684 170.952C248.884 172.36 248.484 173.96 248.484 175.752C248.484 177.544 248.884 179.144 249.684 180.552C250.516 181.96 251.652 183.064 253.092 183.864C254.564 184.632 256.212 185.016 258.036 185.016ZM302.463 177.432H281.343C281.535 180.056 282.543 182.184 284.367 183.816C286.191 185.416 288.495 186.216 291.279 186.216C292.847 186.216 294.287 185.944 295.599 185.4C296.911 184.824 298.047 183.992 299.007 182.904L300.927 185.112C299.807 186.456 298.399 187.48 296.703 188.184C295.039 188.888 293.199 189.24 291.183 189.24C288.591 189.24 286.287 188.696 284.271 187.608C282.287 186.488 280.735 184.952 279.615 183C278.495 181.048 277.935 178.84 277.935 176.376C277.935 173.912 278.463 171.704 279.519 169.752C280.607 167.8 282.079 166.28 283.935 165.192C285.823 164.104 287.935 163.56 290.271 163.56C292.607 163.56 294.703 164.104 296.559 165.192C298.415 166.28 299.871 167.8 300.927 169.752C301.983 171.672 302.511 173.88 302.511 176.376L302.463 177.432ZM290.271 166.488C287.839 166.488 285.791 167.272 284.127 168.84C282.495 170.376 281.567 172.392 281.343 174.888H299.247C299.023 172.392 298.079 170.376 296.415 168.84C294.783 167.272 292.735 166.488 290.271 166.488ZM334.874 163.56C338.042 163.56 340.554 164.488 342.41 166.344C344.298 168.168 345.242 170.84 345.242 174.36V189H341.834V174.696C341.834 172.072 341.178 170.072 339.866 168.696C338.554 167.32 336.682 166.632 334.25 166.632C331.53 166.632 329.37 167.448 327.77 169.08C326.202 170.68 325.418 172.904 325.418 175.752V189H322.01V163.752H325.274V168.408C326.202 166.872 327.482 165.688 329.114 164.856C330.778 163.992 332.698 163.56 334.874 163.56ZM364.908 189.24C362.476 189.24 360.284 188.696 358.332 187.608C356.38 186.488 354.844 184.952 353.724 183C352.604 181.048 352.044 178.84 352.044 176.376C352.044 173.912 352.604 171.704 353.724 169.752C354.844 167.8 356.38 166.28 358.332 165.192C360.284 164.104 362.476 163.56 364.908 163.56C367.34 163.56 369.532 164.104 371.484 165.192C373.436 166.28 374.956 167.8 376.044 169.752C377.164 171.704 377.724 173.912 377.724 176.376C377.724 178.84 377.164 181.048 376.044 183C374.956 184.952 373.436 186.488 371.484 187.608C369.532 188.696 367.34 189.24 364.908 189.24ZM364.908 186.216C366.7 186.216 368.3 185.816 369.708 185.016C371.148 184.184 372.268 183.016 373.068 181.512C373.868 180.008 374.268 178.296 374.268 176.376C374.268 174.456 373.868 172.744 373.068 171.24C372.268 169.736 371.148 168.584 369.708 167.784C368.3 166.952 366.7 166.536 364.908 166.536C363.116 166.536 361.5 166.952 360.06 167.784C358.652 168.584 357.532 169.736 356.7 171.24C355.9 172.744 355.5 174.456 355.5 176.376C355.5 178.296 355.9 180.008 356.7 181.512C357.532 183.016 358.652 184.184 360.06 185.016C361.5 185.816 363.116 186.216 364.908 186.216ZM397.978 187.464C397.338 188.04 396.538 188.488 395.578 188.808C394.65 189.096 393.674 189.24 392.65 189.24C390.282 189.24 388.458 188.6 387.178 187.32C385.898 186.04 385.258 184.232 385.258 181.896V166.632H380.746V163.752H385.258V158.232H388.666V163.752H396.346V166.632H388.666V181.704C388.666 183.208 389.034 184.36 389.77 185.16C390.538 185.928 391.626 186.312 393.034 186.312C393.738 186.312 394.41 186.2 395.05 185.976C395.722 185.752 396.298 185.432 396.778 185.016L397.978 187.464ZM425.096 156.024C423.624 156.024 422.504 156.424 421.736 157.224C421 158.024 420.632 159.208 420.632 160.776V163.752H428.408V166.632H420.728V189H417.32V166.632H412.808V163.752H417.32V160.632C417.32 158.328 417.976 156.504 419.288 155.16C420.632 153.816 422.52 153.144 424.952 153.144C425.912 153.144 426.84 153.288 427.736 153.576C428.632 153.832 429.384 154.216 429.992 154.728L428.84 157.272C427.848 156.44 426.6 156.024 425.096 156.024ZM442.908 189.24C440.476 189.24 438.284 188.696 436.332 187.608C434.38 186.488 432.844 184.952 431.724 183C430.604 181.048 430.044 178.84 430.044 176.376C430.044 173.912 430.604 171.704 431.724 169.752C432.844 167.8 434.38 166.28 436.332 165.192C438.284 164.104 440.476 163.56 442.908 163.56C445.34 163.56 447.532 164.104 449.484 165.192C451.436 166.28 452.956 167.8 454.044 169.752C455.164 171.704 455.724 173.912 455.724 176.376C455.724 178.84 455.164 181.048 454.044 183C452.956 184.952 451.436 186.488 449.484 187.608C447.532 188.696 445.34 189.24 442.908 189.24ZM442.908 186.216C444.7 186.216 446.3 185.816 447.708 185.016C449.148 184.184 450.268 183.016 451.068 181.512C451.868 180.008 452.268 178.296 452.268 176.376C452.268 174.456 451.868 172.744 451.068 171.24C450.268 169.736 449.148 168.584 447.708 167.784C446.3 166.952 444.7 166.536 442.908 166.536C441.116 166.536 439.5 166.952 438.06 167.784C436.652 168.584 435.532 169.736 434.7 171.24C433.9 172.744 433.5 174.456 433.5 176.376C433.5 178.296 433.9 180.008 434.7 181.512C435.532 183.016 436.652 184.184 438.06 185.016C439.5 185.816 441.116 186.216 442.908 186.216ZM485.434 163.752V189H482.17V184.392C481.274 185.928 480.042 187.128 478.474 187.992C476.906 188.824 475.114 189.24 473.098 189.24C469.802 189.24 467.194 188.328 465.274 186.504C463.386 184.648 462.442 181.944 462.442 178.392V163.752H465.85V178.056C465.85 180.712 466.506 182.728 467.818 184.104C469.13 185.48 471.002 186.168 473.434 186.168C476.09 186.168 478.186 185.368 479.722 183.768C481.258 182.136 482.026 179.88 482.026 177V163.752H485.434ZM507.843 163.56C511.011 163.56 513.523 164.488 515.379 166.344C517.267 168.168 518.211 170.84 518.211 174.36V189H514.803V174.696C514.803 172.072 514.147 170.072 512.835 168.696C511.523 167.32 509.651 166.632 507.219 166.632C504.499 166.632 502.339 167.448 500.739 169.08C499.171 170.68 498.387 172.904 498.387 175.752V189H494.979V163.752H498.243V168.408C499.171 166.872 500.451 165.688 502.083 164.856C503.747 163.992 505.667 163.56 507.843 163.56ZM550.597 153.384V189H547.333V184.008C546.309 185.704 544.949 187 543.253 187.896C541.589 188.792 539.701 189.24 537.589 189.24C535.221 189.24 533.077 188.696 531.157 187.608C529.237 186.52 527.733 185 526.645 183.048C525.557 181.096 525.013 178.872 525.013 176.376C525.013 173.88 525.557 171.656 526.645 169.704C527.733 167.752 529.237 166.248 531.157 165.192C533.077 164.104 535.221 163.56 537.589 163.56C539.637 163.56 541.477 163.992 543.109 164.856C544.773 165.688 546.133 166.92 547.189 168.552V153.384H550.597ZM537.877 186.216C539.637 186.216 541.221 185.816 542.629 185.016C544.069 184.184 545.189 183.016 545.989 181.512C546.821 180.008 547.237 178.296 547.237 176.376C547.237 174.456 546.821 172.744 545.989 171.24C545.189 169.736 544.069 168.584 542.629 167.784C541.221 166.952 539.637 166.536 537.877 166.536C536.085 166.536 534.469 166.952 533.029 167.784C531.621 168.584 530.501 169.736 529.669 171.24C528.869 172.744 528.469 174.456 528.469 176.376C528.469 178.296 528.869 180.008 529.669 181.512C530.501 183.016 531.621 184.184 533.029 185.016C534.469 185.816 536.085 186.216 537.877 186.216Z" fill="#ECAA73"/>
</svg>
