<svg width="733" height="258" viewBox="0 0 733 258" fill="none" xmlns="http://www.w3.org/2000/svg">
<rect x="73" y="1" width="589" height="256" rx="4" fill="white" stroke="#75C27D" stroke-width="2"/>
<path d="M264.623 151.728C250.031 151.728 237.455 146.688 226.895 136.608L240.287 120.624C248.351 127.92 256.367 131.568 264.335 131.568C269.615 131.568 273.743 130.32 276.719 127.824C279.695 125.328 281.183 121.824 281.183 117.312C281.183 113.088 279.551 109.776 276.287 107.376C273.023 104.88 268.703 103.632 263.327 103.632C257.951 103.632 252.335 104.88 246.479 107.376L233.663 98.88L236.543 49.2H298.463V68.64H255.551L254.399 86.064C259.007 84.912 263.423 84.336 267.647 84.336C278.111 84.336 286.607 87.024 293.135 92.4C299.663 97.776 302.927 105.936 302.927 116.88C302.927 127.536 299.423 136.032 292.415 142.368C285.503 148.608 276.239 151.728 264.623 151.728ZM460.514 151.728C445.922 151.728 433.346 146.688 422.786 136.608L436.178 120.624C444.242 127.92 452.258 131.568 460.226 131.568C465.506 131.568 469.634 130.32 472.61 127.824C475.586 125.328 477.074 121.824 477.074 117.312C477.074 113.088 475.442 109.776 472.178 107.376C468.914 104.88 464.594 103.632 459.218 103.632C453.842 103.632 448.226 104.88 442.37 107.376L429.554 98.88L432.434 49.2H494.354V68.64H451.442L450.29 86.064C454.898 84.912 459.314 84.336 463.538 84.336C474.002 84.336 482.498 87.024 489.026 92.4C495.554 97.776 498.818 105.936 498.818 116.88C498.818 127.536 495.314 136.032 488.306 142.368C481.394 148.608 472.13 151.728 460.514 151.728Z" fill="#75C27D"/>
<path d="M396.222 136.896C387.87 146.784 377.07 151.728 363.822 151.728C350.574 151.728 339.822 146.784 331.566 136.896C323.31 127.008 319.182 114.576 319.182 99.6C319.182 84.72 323.358 72.336 331.71 62.448C340.062 52.464 350.862 47.472 364.11 47.472C377.262 47.472 387.966 52.416 396.222 62.304C404.574 72.192 408.75 84.624 408.75 99.6C408.75 114.48 404.574 126.912 396.222 136.896ZM347.982 122.64C352.11 128.688 357.486 131.712 364.11 131.712C370.734 131.712 376.014 128.736 379.95 122.784C383.982 116.736 385.998 109.008 385.998 99.6C385.998 90.384 383.934 82.752 379.806 76.704C375.678 70.56 370.35 67.488 363.822 67.488C357.294 67.488 352.014 70.512 347.982 76.56C343.95 82.512 341.934 90.192 341.934 99.6C341.934 108.912 343.95 116.592 347.982 122.64Z" fill="#ECAA73"/>
<path d="M134.425 154.4H137.977V188H134.425V154.4ZM161.054 162.56C164.222 162.56 166.734 163.488 168.59 165.344C170.478 167.168 171.422 169.84 171.422 173.36V188H168.014V173.696C168.014 171.072 167.358 169.072 166.046 167.696C164.734 166.32 162.862 165.632 160.43 165.632C157.71 165.632 155.55 166.448 153.95 168.08C152.382 169.68 151.598 171.904 151.598 174.752V188H148.19V162.752H151.454V167.408C152.382 165.872 153.662 164.688 155.294 163.856C156.958 162.992 158.878 162.56 161.054 162.56ZM193.97 186.464C193.33 187.04 192.53 187.488 191.57 187.808C190.642 188.096 189.666 188.24 188.642 188.24C186.274 188.24 184.45 187.6 183.17 186.32C181.89 185.04 181.25 183.232 181.25 180.896V165.632H176.738V162.752H181.25V157.232H184.658V162.752H192.338V165.632H184.658V180.704C184.658 182.208 185.026 183.36 185.762 184.16C186.53 184.928 187.618 185.312 189.026 185.312C189.73 185.312 190.402 185.2 191.042 184.976C191.714 184.752 192.29 184.432 192.77 184.016L193.97 186.464ZM221.267 176.432H200.147C200.339 179.056 201.347 181.184 203.171 182.816C204.995 184.416 207.299 185.216 210.083 185.216C211.651 185.216 213.091 184.944 214.403 184.4C215.715 183.824 216.851 182.992 217.811 181.904L219.731 184.112C218.611 185.456 217.203 186.48 215.507 187.184C213.843 187.888 212.003 188.24 209.987 188.24C207.395 188.24 205.091 187.696 203.075 186.608C201.091 185.488 199.539 183.952 198.419 182C197.299 180.048 196.739 177.84 196.739 175.376C196.739 172.912 197.267 170.704 198.323 168.752C199.411 166.8 200.883 165.28 202.739 164.192C204.627 163.104 206.739 162.56 209.075 162.56C211.411 162.56 213.507 163.104 215.363 164.192C217.219 165.28 218.675 166.8 219.731 168.752C220.787 170.672 221.315 172.88 221.315 175.376L221.267 176.432ZM209.075 165.488C206.643 165.488 204.595 166.272 202.931 167.84C201.299 169.376 200.371 171.392 200.147 173.888H218.051C217.827 171.392 216.883 169.376 215.219 167.84C213.587 166.272 211.539 165.488 209.075 165.488ZM231.516 167.696C232.316 166 233.5 164.72 235.068 163.856C236.668 162.992 238.636 162.56 240.972 162.56V165.872L240.156 165.824C237.5 165.824 235.42 166.64 233.916 168.272C232.412 169.904 231.66 172.192 231.66 175.136V188H228.252V162.752H231.516V167.696ZM260.007 162.56C263.175 162.56 265.687 163.488 267.543 165.344C269.431 167.168 270.375 169.84 270.375 173.36V188H266.967V173.696C266.967 171.072 266.311 169.072 264.999 167.696C263.687 166.32 261.815 165.632 259.383 165.632C256.663 165.632 254.503 166.448 252.903 168.08C251.335 169.68 250.551 171.904 250.551 174.752V188H247.143V162.752H250.407V167.408C251.335 165.872 252.615 164.688 254.247 163.856C255.911 162.992 257.831 162.56 260.007 162.56ZM288.459 162.56C291.755 162.56 294.283 163.392 296.043 165.056C297.803 166.688 298.683 169.12 298.683 172.352V188H295.419V184.064C294.651 185.376 293.515 186.4 292.011 187.136C290.539 187.872 288.779 188.24 286.731 188.24C283.915 188.24 281.675 187.568 280.011 186.224C278.347 184.88 277.515 183.104 277.515 180.896C277.515 178.752 278.283 177.024 279.819 175.712C281.387 174.4 283.867 173.744 287.259 173.744H295.275V172.208C295.275 170.032 294.667 168.384 293.451 167.264C292.235 166.112 290.459 165.536 288.123 165.536C286.523 165.536 284.987 165.808 283.515 166.352C282.043 166.864 280.779 167.584 279.723 168.512L278.187 165.968C279.467 164.88 281.003 164.048 282.795 163.472C284.587 162.864 286.475 162.56 288.459 162.56ZM287.259 185.552C289.179 185.552 290.827 185.12 292.203 184.256C293.579 183.36 294.603 182.08 295.275 180.416V176.288H287.355C283.035 176.288 280.875 177.792 280.875 180.8C280.875 182.272 281.435 183.44 282.555 184.304C283.675 185.136 285.243 185.552 287.259 185.552ZM307.94 152.384H311.348V188H307.94V152.384ZM340.161 188.24C338.113 188.24 336.145 187.952 334.257 187.376C332.401 186.768 330.945 186.016 329.889 185.12L331.425 182.432C332.481 183.264 333.809 183.952 335.409 184.496C337.009 185.008 338.673 185.264 340.401 185.264C342.705 185.264 344.401 184.912 345.489 184.208C346.609 183.472 347.169 182.448 347.169 181.136C347.169 180.208 346.865 179.488 346.257 178.976C345.649 178.432 344.881 178.032 343.953 177.776C343.025 177.488 341.793 177.216 340.257 176.96C338.209 176.576 336.561 176.192 335.313 175.808C334.065 175.392 332.993 174.704 332.097 173.744C331.233 172.784 330.801 171.456 330.801 169.76C330.801 167.648 331.681 165.92 333.441 164.576C335.201 163.232 337.649 162.56 340.785 162.56C342.417 162.56 344.049 162.784 345.681 163.232C347.313 163.648 348.657 164.208 349.713 164.912L348.225 167.648C346.145 166.208 343.665 165.488 340.785 165.488C338.609 165.488 336.961 165.872 335.841 166.64C334.753 167.408 334.209 168.416 334.209 169.664C334.209 170.624 334.513 171.392 335.121 171.968C335.761 172.544 336.545 172.976 337.473 173.264C338.401 173.52 339.681 173.792 341.313 174.08C343.329 174.464 344.945 174.848 346.161 175.232C347.377 175.616 348.417 176.272 349.281 177.2C350.145 178.128 350.577 179.408 350.577 181.04C350.577 183.248 349.649 185.008 347.793 186.32C345.969 187.6 343.425 188.24 340.161 188.24ZM378.861 176.432H357.741C357.933 179.056 358.941 181.184 360.765 182.816C362.589 184.416 364.893 185.216 367.677 185.216C369.245 185.216 370.685 184.944 371.997 184.4C373.309 183.824 374.445 182.992 375.405 181.904L377.325 184.112C376.205 185.456 374.797 186.48 373.101 187.184C371.437 187.888 369.597 188.24 367.581 188.24C364.989 188.24 362.685 187.696 360.669 186.608C358.685 185.488 357.133 183.952 356.013 182C354.893 180.048 354.333 177.84 354.333 175.376C354.333 172.912 354.861 170.704 355.917 168.752C357.005 166.8 358.477 165.28 360.333 164.192C362.221 163.104 364.333 162.56 366.669 162.56C369.005 162.56 371.101 163.104 372.957 164.192C374.813 165.28 376.269 166.8 377.325 168.752C378.381 170.672 378.909 172.88 378.909 175.376L378.861 176.432ZM366.669 165.488C364.237 165.488 362.189 166.272 360.525 167.84C358.893 169.376 357.965 171.392 357.741 173.888H375.645C375.421 171.392 374.477 169.376 372.813 167.84C371.181 166.272 369.133 165.488 366.669 165.488ZM389.11 167.696C389.91 166 391.094 164.72 392.662 163.856C394.262 162.992 396.23 162.56 398.566 162.56V165.872L397.75 165.824C395.094 165.824 393.014 166.64 391.51 168.272C390.006 169.904 389.254 172.192 389.254 175.136V188H385.846V162.752H389.11V167.696ZM427.031 162.752L415.799 188H412.295L401.111 162.752H404.663L414.119 184.256L423.671 162.752H427.031ZM453.111 176.432H431.991C432.183 179.056 433.191 181.184 435.015 182.816C436.839 184.416 439.143 185.216 441.927 185.216C443.495 185.216 444.935 184.944 446.247 184.4C447.559 183.824 448.695 182.992 449.655 181.904L451.575 184.112C450.455 185.456 449.047 186.48 447.351 187.184C445.687 187.888 443.847 188.24 441.831 188.24C439.239 188.24 436.935 187.696 434.919 186.608C432.935 185.488 431.383 183.952 430.263 182C429.143 180.048 428.583 177.84 428.583 175.376C428.583 172.912 429.111 170.704 430.167 168.752C431.255 166.8 432.727 165.28 434.583 164.192C436.471 163.104 438.583 162.56 440.919 162.56C443.255 162.56 445.351 163.104 447.207 164.192C449.063 165.28 450.519 166.8 451.575 168.752C452.631 170.672 453.159 172.88 453.159 175.376L453.111 176.432ZM440.919 165.488C438.487 165.488 436.439 166.272 434.775 167.84C433.143 169.376 432.215 171.392 431.991 173.888H449.895C449.671 171.392 448.727 169.376 447.063 167.84C445.431 166.272 443.383 165.488 440.919 165.488ZM463.36 167.696C464.16 166 465.344 164.72 466.912 163.856C468.512 162.992 470.48 162.56 472.816 162.56V165.872L472 165.824C469.344 165.824 467.264 166.64 465.76 168.272C464.256 169.904 463.504 172.192 463.504 175.136V188H460.096V162.752H463.36V167.696ZM513.908 176.432H492.788C492.98 179.056 493.988 181.184 495.812 182.816C497.636 184.416 499.94 185.216 502.724 185.216C504.292 185.216 505.732 184.944 507.044 184.4C508.356 183.824 509.492 182.992 510.452 181.904L512.372 184.112C511.252 185.456 509.844 186.48 508.148 187.184C506.484 187.888 504.644 188.24 502.628 188.24C500.036 188.24 497.732 187.696 495.716 186.608C493.732 185.488 492.18 183.952 491.06 182C489.94 180.048 489.38 177.84 489.38 175.376C489.38 172.912 489.908 170.704 490.964 168.752C492.052 166.8 493.524 165.28 495.38 164.192C497.268 163.104 499.38 162.56 501.716 162.56C504.052 162.56 506.148 163.104 508.004 164.192C509.86 165.28 511.316 166.8 512.372 168.752C513.428 170.672 513.956 172.88 513.956 175.376L513.908 176.432ZM501.716 165.488C499.284 165.488 497.236 166.272 495.572 167.84C493.94 169.376 493.012 171.392 492.788 173.888H510.692C510.468 171.392 509.524 169.376 507.86 167.84C506.228 166.272 504.18 165.488 501.716 165.488ZM524.157 167.696C524.957 166 526.141 164.72 527.709 163.856C529.309 162.992 531.277 162.56 533.613 162.56V165.872L532.797 165.824C530.141 165.824 528.061 166.64 526.557 168.272C525.053 169.904 524.301 172.192 524.301 175.136V188H520.893V162.752H524.157V167.696ZM543.047 167.696C543.847 166 545.031 164.72 546.599 163.856C548.199 162.992 550.167 162.56 552.503 162.56V165.872L551.687 165.824C549.031 165.824 546.951 166.64 545.447 168.272C543.943 169.904 543.191 172.192 543.191 175.136V188H539.783V162.752H543.047V167.696ZM568.76 188.24C566.328 188.24 564.136 187.696 562.184 186.608C560.232 185.488 558.696 183.952 557.576 182C556.456 180.048 555.896 177.84 555.896 175.376C555.896 172.912 556.456 170.704 557.576 168.752C558.696 166.8 560.232 165.28 562.184 164.192C564.136 163.104 566.328 162.56 568.76 162.56C571.192 162.56 573.384 163.104 575.336 164.192C577.288 165.28 578.808 166.8 579.896 168.752C581.016 170.704 581.576 172.912 581.576 175.376C581.576 177.84 581.016 180.048 579.896 182C578.808 183.952 577.288 185.488 575.336 186.608C573.384 187.696 571.192 188.24 568.76 188.24ZM568.76 185.216C570.552 185.216 572.152 184.816 573.56 184.016C575 183.184 576.12 182.016 576.92 180.512C577.72 179.008 578.12 177.296 578.12 175.376C578.12 173.456 577.72 171.744 576.92 170.24C576.12 168.736 575 167.584 573.56 166.784C572.152 165.952 570.552 165.536 568.76 165.536C566.968 165.536 565.352 165.952 563.912 166.784C562.504 167.584 561.384 168.736 560.552 170.24C559.752 171.744 559.352 173.456 559.352 175.376C559.352 177.296 559.752 179.008 560.552 180.512C561.384 182.016 562.504 183.184 563.912 184.016C565.352 184.816 566.968 185.216 568.76 185.216ZM591.797 167.696C592.597 166 593.781 164.72 595.349 163.856C596.949 162.992 598.917 162.56 601.253 162.56V165.872L600.437 165.824C597.781 165.824 595.701 166.64 594.197 168.272C592.693 169.904 591.941 172.192 591.941 175.136V188H588.533V162.752H591.797V167.696Z" fill="#75C27D"/>
<path d="M135.425 155.4H138.977V189H135.425V155.4ZM162.054 163.56C165.222 163.56 167.734 164.488 169.59 166.344C171.478 168.168 172.422 170.84 172.422 174.36V189H169.014V174.696C169.014 172.072 168.358 170.072 167.046 168.696C165.734 167.32 163.862 166.632 161.43 166.632C158.71 166.632 156.55 167.448 154.95 169.08C153.382 170.68 152.598 172.904 152.598 175.752V189H149.19V163.752H152.454V168.408C153.382 166.872 154.662 165.688 156.294 164.856C157.958 163.992 159.878 163.56 162.054 163.56ZM194.97 187.464C194.33 188.04 193.53 188.488 192.57 188.808C191.642 189.096 190.666 189.24 189.642 189.24C187.274 189.24 185.45 188.6 184.17 187.32C182.89 186.04 182.25 184.232 182.25 181.896V166.632H177.738V163.752H182.25V158.232H185.658V163.752H193.338V166.632H185.658V181.704C185.658 183.208 186.026 184.36 186.762 185.16C187.53 185.928 188.618 186.312 190.026 186.312C190.73 186.312 191.402 186.2 192.042 185.976C192.714 185.752 193.29 185.432 193.77 185.016L194.97 187.464ZM222.267 177.432H201.147C201.339 180.056 202.347 182.184 204.171 183.816C205.995 185.416 208.299 186.216 211.083 186.216C212.651 186.216 214.091 185.944 215.403 185.4C216.715 184.824 217.851 183.992 218.811 182.904L220.731 185.112C219.611 186.456 218.203 187.48 216.507 188.184C214.843 188.888 213.003 189.24 210.987 189.24C208.395 189.24 206.091 188.696 204.075 187.608C202.091 186.488 200.539 184.952 199.419 183C198.299 181.048 197.739 178.84 197.739 176.376C197.739 173.912 198.267 171.704 199.323 169.752C200.411 167.8 201.883 166.28 203.739 165.192C205.627 164.104 207.739 163.56 210.075 163.56C212.411 163.56 214.507 164.104 216.363 165.192C218.219 166.28 219.675 167.8 220.731 169.752C221.787 171.672 222.315 173.88 222.315 176.376L222.267 177.432ZM210.075 166.488C207.643 166.488 205.595 167.272 203.931 168.84C202.299 170.376 201.371 172.392 201.147 174.888H219.051C218.827 172.392 217.883 170.376 216.219 168.84C214.587 167.272 212.539 166.488 210.075 166.488ZM232.516 168.696C233.316 167 234.5 165.72 236.068 164.856C237.668 163.992 239.636 163.56 241.972 163.56V166.872L241.156 166.824C238.5 166.824 236.42 167.64 234.916 169.272C233.412 170.904 232.66 173.192 232.66 176.136V189H229.252V163.752H232.516V168.696ZM261.007 163.56C264.175 163.56 266.687 164.488 268.543 166.344C270.431 168.168 271.375 170.84 271.375 174.36V189H267.967V174.696C267.967 172.072 267.311 170.072 265.999 168.696C264.687 167.32 262.815 166.632 260.383 166.632C257.663 166.632 255.503 167.448 253.903 169.08C252.335 170.68 251.551 172.904 251.551 175.752V189H248.143V163.752H251.407V168.408C252.335 166.872 253.615 165.688 255.247 164.856C256.911 163.992 258.831 163.56 261.007 163.56ZM289.459 163.56C292.755 163.56 295.283 164.392 297.043 166.056C298.803 167.688 299.683 170.12 299.683 173.352V189H296.419V185.064C295.651 186.376 294.515 187.4 293.011 188.136C291.539 188.872 289.779 189.24 287.731 189.24C284.915 189.24 282.675 188.568 281.011 187.224C279.347 185.88 278.515 184.104 278.515 181.896C278.515 179.752 279.283 178.024 280.819 176.712C282.387 175.4 284.867 174.744 288.259 174.744H296.275V173.208C296.275 171.032 295.667 169.384 294.451 168.264C293.235 167.112 291.459 166.536 289.123 166.536C287.523 166.536 285.987 166.808 284.515 167.352C283.043 167.864 281.779 168.584 280.723 169.512L279.187 166.968C280.467 165.88 282.003 165.048 283.795 164.472C285.587 163.864 287.475 163.56 289.459 163.56ZM288.259 186.552C290.179 186.552 291.827 186.12 293.203 185.256C294.579 184.36 295.603 183.08 296.275 181.416V177.288H288.355C284.035 177.288 281.875 178.792 281.875 181.8C281.875 183.272 282.435 184.44 283.555 185.304C284.675 186.136 286.243 186.552 288.259 186.552ZM308.94 153.384H312.348V189H308.94V153.384ZM341.161 189.24C339.113 189.24 337.145 188.952 335.257 188.376C333.401 187.768 331.945 187.016 330.889 186.12L332.425 183.432C333.481 184.264 334.809 184.952 336.409 185.496C338.009 186.008 339.673 186.264 341.401 186.264C343.705 186.264 345.401 185.912 346.489 185.208C347.609 184.472 348.169 183.448 348.169 182.136C348.169 181.208 347.865 180.488 347.257 179.976C346.649 179.432 345.881 179.032 344.953 178.776C344.025 178.488 342.793 178.216 341.257 177.96C339.209 177.576 337.561 177.192 336.313 176.808C335.065 176.392 333.993 175.704 333.097 174.744C332.233 173.784 331.801 172.456 331.801 170.76C331.801 168.648 332.681 166.92 334.441 165.576C336.201 164.232 338.649 163.56 341.785 163.56C343.417 163.56 345.049 163.784 346.681 164.232C348.313 164.648 349.657 165.208 350.713 165.912L349.225 168.648C347.145 167.208 344.665 166.488 341.785 166.488C339.609 166.488 337.961 166.872 336.841 167.64C335.753 168.408 335.209 169.416 335.209 170.664C335.209 171.624 335.513 172.392 336.121 172.968C336.761 173.544 337.545 173.976 338.473 174.264C339.401 174.52 340.681 174.792 342.313 175.08C344.329 175.464 345.945 175.848 347.161 176.232C348.377 176.616 349.417 177.272 350.281 178.2C351.145 179.128 351.577 180.408 351.577 182.04C351.577 184.248 350.649 186.008 348.793 187.32C346.969 188.6 344.425 189.24 341.161 189.24ZM379.861 177.432H358.741C358.933 180.056 359.941 182.184 361.765 183.816C363.589 185.416 365.893 186.216 368.677 186.216C370.245 186.216 371.685 185.944 372.997 185.4C374.309 184.824 375.445 183.992 376.405 182.904L378.325 185.112C377.205 186.456 375.797 187.48 374.101 188.184C372.437 188.888 370.597 189.24 368.581 189.24C365.989 189.24 363.685 188.696 361.669 187.608C359.685 186.488 358.133 184.952 357.013 183C355.893 181.048 355.333 178.84 355.333 176.376C355.333 173.912 355.861 171.704 356.917 169.752C358.005 167.8 359.477 166.28 361.333 165.192C363.221 164.104 365.333 163.56 367.669 163.56C370.005 163.56 372.101 164.104 373.957 165.192C375.813 166.28 377.269 167.8 378.325 169.752C379.381 171.672 379.909 173.88 379.909 176.376L379.861 177.432ZM367.669 166.488C365.237 166.488 363.189 167.272 361.525 168.84C359.893 170.376 358.965 172.392 358.741 174.888H376.645C376.421 172.392 375.477 170.376 373.813 168.84C372.181 167.272 370.133 166.488 367.669 166.488ZM390.11 168.696C390.91 167 392.094 165.72 393.662 164.856C395.262 163.992 397.23 163.56 399.566 163.56V166.872L398.75 166.824C396.094 166.824 394.014 167.64 392.51 169.272C391.006 170.904 390.254 173.192 390.254 176.136V189H386.846V163.752H390.11V168.696ZM428.031 163.752L416.799 189H413.295L402.111 163.752H405.663L415.119 185.256L424.671 163.752H428.031ZM454.111 177.432H432.991C433.183 180.056 434.191 182.184 436.015 183.816C437.839 185.416 440.143 186.216 442.927 186.216C444.495 186.216 445.935 185.944 447.247 185.4C448.559 184.824 449.695 183.992 450.655 182.904L452.575 185.112C451.455 186.456 450.047 187.48 448.351 188.184C446.687 188.888 444.847 189.24 442.831 189.24C440.239 189.24 437.935 188.696 435.919 187.608C433.935 186.488 432.383 184.952 431.263 183C430.143 181.048 429.583 178.84 429.583 176.376C429.583 173.912 430.111 171.704 431.167 169.752C432.255 167.8 433.727 166.28 435.583 165.192C437.471 164.104 439.583 163.56 441.919 163.56C444.255 163.56 446.351 164.104 448.207 165.192C450.063 166.28 451.519 167.8 452.575 169.752C453.631 171.672 454.159 173.88 454.159 176.376L454.111 177.432ZM441.919 166.488C439.487 166.488 437.439 167.272 435.775 168.84C434.143 170.376 433.215 172.392 432.991 174.888H450.895C450.671 172.392 449.727 170.376 448.063 168.84C446.431 167.272 444.383 166.488 441.919 166.488ZM464.36 168.696C465.16 167 466.344 165.72 467.912 164.856C469.512 163.992 471.48 163.56 473.816 163.56V166.872L473 166.824C470.344 166.824 468.264 167.64 466.76 169.272C465.256 170.904 464.504 173.192 464.504 176.136V189H461.096V163.752H464.36V168.696ZM514.908 177.432H493.788C493.98 180.056 494.988 182.184 496.812 183.816C498.636 185.416 500.94 186.216 503.724 186.216C505.292 186.216 506.732 185.944 508.044 185.4C509.356 184.824 510.492 183.992 511.452 182.904L513.372 185.112C512.252 186.456 510.844 187.48 509.148 188.184C507.484 188.888 505.644 189.24 503.628 189.24C501.036 189.24 498.732 188.696 496.716 187.608C494.732 186.488 493.18 184.952 492.06 183C490.94 181.048 490.38 178.84 490.38 176.376C490.38 173.912 490.908 171.704 491.964 169.752C493.052 167.8 494.524 166.28 496.38 165.192C498.268 164.104 500.38 163.56 502.716 163.56C505.052 163.56 507.148 164.104 509.004 165.192C510.86 166.28 512.316 167.8 513.372 169.752C514.428 171.672 514.956 173.88 514.956 176.376L514.908 177.432ZM502.716 166.488C500.284 166.488 498.236 167.272 496.572 168.84C494.94 170.376 494.012 172.392 493.788 174.888H511.692C511.468 172.392 510.524 170.376 508.86 168.84C507.228 167.272 505.18 166.488 502.716 166.488ZM525.157 168.696C525.957 167 527.141 165.72 528.709 164.856C530.309 163.992 532.277 163.56 534.613 163.56V166.872L533.797 166.824C531.141 166.824 529.061 167.64 527.557 169.272C526.053 170.904 525.301 173.192 525.301 176.136V189H521.893V163.752H525.157V168.696ZM544.047 168.696C544.847 167 546.031 165.72 547.599 164.856C549.199 163.992 551.167 163.56 553.503 163.56V166.872L552.687 166.824C550.031 166.824 547.951 167.64 546.447 169.272C544.943 170.904 544.191 173.192 544.191 176.136V189H540.783V163.752H544.047V168.696ZM569.76 189.24C567.328 189.24 565.136 188.696 563.184 187.608C561.232 186.488 559.696 184.952 558.576 183C557.456 181.048 556.896 178.84 556.896 176.376C556.896 173.912 557.456 171.704 558.576 169.752C559.696 167.8 561.232 166.28 563.184 165.192C565.136 164.104 567.328 163.56 569.76 163.56C572.192 163.56 574.384 164.104 576.336 165.192C578.288 166.28 579.808 167.8 580.896 169.752C582.016 171.704 582.576 173.912 582.576 176.376C582.576 178.84 582.016 181.048 580.896 183C579.808 184.952 578.288 186.488 576.336 187.608C574.384 188.696 572.192 189.24 569.76 189.24ZM569.76 186.216C571.552 186.216 573.152 185.816 574.56 185.016C576 184.184 577.12 183.016 577.92 181.512C578.72 180.008 579.12 178.296 579.12 176.376C579.12 174.456 578.72 172.744 577.92 171.24C577.12 169.736 576 168.584 574.56 167.784C573.152 166.952 571.552 166.536 569.76 166.536C567.968 166.536 566.352 166.952 564.912 167.784C563.504 168.584 562.384 169.736 561.552 171.24C560.752 172.744 560.352 174.456 560.352 176.376C560.352 178.296 560.752 180.008 561.552 181.512C562.384 183.016 563.504 184.184 564.912 185.016C566.352 185.816 567.968 186.216 569.76 186.216ZM592.797 168.696C593.597 167 594.781 165.72 596.349 164.856C597.949 163.992 599.917 163.56 602.253 163.56V166.872L601.437 166.824C598.781 166.824 596.701 167.64 595.197 169.272C593.693 170.904 592.941 173.192 592.941 176.136V189H589.533V163.752H592.797V168.696Z" fill="#ECAA73"/>
</svg>
