<svg width="734" height="262" viewBox="0 0 734 262" fill="none" xmlns="http://www.w3.org/2000/svg">
<rect x="72.5" y="5.5" width="588" height="255" rx="3.5" fill="white" stroke="#ECAA73" stroke-width="3"/>
<rect x="76.5" y="1.5" width="588" height="255" rx="3.5" fill="white" stroke="#75C27D" stroke-width="3"/>
<path d="M282.799 156.75C277.499 156.75 272.699 155.6 268.399 153.3C264.149 150.95 260.799 147.725 258.349 143.625C255.949 139.525 254.749 134.9 254.749 129.75C254.749 124.6 255.974 119.975 258.424 115.875C260.874 111.775 264.224 108.575 268.474 106.275C272.774 103.925 277.574 102.75 282.874 102.75C287.174 102.75 291.099 103.5 294.649 105C298.199 106.5 301.199 108.675 303.649 111.525L297.349 117.45C293.549 113.35 288.874 111.3 283.324 111.3C279.724 111.3 276.499 112.1 273.649 113.7C270.799 115.25 268.574 117.425 266.974 120.225C265.374 123.025 264.574 126.2 264.574 129.75C264.574 133.3 265.374 136.475 266.974 139.275C268.574 142.075 270.799 144.275 273.649 145.875C276.499 147.425 279.724 148.2 283.324 148.2C288.874 148.2 293.549 146.125 297.349 141.975L303.649 147.975C301.199 150.825 298.174 153 294.574 154.5C291.024 156 287.099 156.75 282.799 156.75ZM334.816 115.5C339.866 115.5 343.916 116.975 346.966 119.925C350.016 122.875 351.541 127.25 351.541 133.05V156H342.166V134.25C342.166 130.75 341.341 128.125 339.691 126.375C338.041 124.575 335.691 123.675 332.641 123.675C329.191 123.675 326.466 124.725 324.466 126.825C322.466 128.875 321.466 131.85 321.466 135.75V156H312.091V100.35H321.466V120.6C323.016 118.95 324.916 117.7 327.166 116.85C329.466 115.95 332.016 115.5 334.816 115.5ZM401.45 136.2C401.45 136.85 401.4 137.775 401.3 138.975H369.875C370.425 141.925 371.85 144.275 374.15 146.025C376.5 147.725 379.4 148.575 382.85 148.575C387.25 148.575 390.875 147.125 393.725 144.225L398.75 150C396.95 152.15 394.675 153.775 391.925 154.875C389.175 155.975 386.075 156.525 382.625 156.525C378.225 156.525 374.35 155.65 371 153.9C367.65 152.15 365.05 149.725 363.2 146.625C361.4 143.475 360.5 139.925 360.5 135.975C360.5 132.075 361.375 128.575 363.125 125.475C364.925 122.325 367.4 119.875 370.55 118.125C373.7 116.375 377.25 115.5 381.2 115.5C385.1 115.5 388.575 116.375 391.625 118.125C394.725 119.825 397.125 122.25 398.825 125.4C400.575 128.5 401.45 132.1 401.45 136.2ZM381.2 123C378.2 123 375.65 123.9 373.55 125.7C371.5 127.45 370.25 129.8 369.8 132.75H392.525C392.125 129.85 390.9 127.5 388.85 125.7C386.8 123.9 384.25 123 381.2 123ZM424.657 115.5C430.557 115.5 435.057 116.925 438.157 119.775C441.307 122.575 442.882 126.825 442.882 132.525V156H434.032V151.125C432.882 152.875 431.232 154.225 429.082 155.175C426.982 156.075 424.432 156.525 421.432 156.525C418.432 156.525 415.807 156.025 413.557 155.025C411.307 153.975 409.557 152.55 408.307 150.75C407.107 148.9 406.507 146.825 406.507 144.525C406.507 140.925 407.832 138.05 410.482 135.9C413.182 133.7 417.407 132.6 423.157 132.6H433.507V132C433.507 129.2 432.657 127.05 430.957 125.55C429.307 124.05 426.832 123.3 423.532 123.3C421.282 123.3 419.057 123.65 416.857 124.35C414.707 125.05 412.882 126.025 411.382 127.275L407.707 120.45C409.807 118.85 412.332 117.625 415.282 116.775C418.232 115.925 421.357 115.5 424.657 115.5ZM423.382 149.7C425.732 149.7 427.807 149.175 429.607 148.125C431.457 147.025 432.757 145.475 433.507 143.475V138.825H423.832C418.432 138.825 415.732 140.6 415.732 144.15C415.732 145.85 416.407 147.2 417.757 148.2C419.107 149.2 420.982 149.7 423.382 149.7ZM478.989 153.825C477.889 154.725 476.539 155.4 474.939 155.85C473.389 156.3 471.739 156.525 469.989 156.525C465.589 156.525 462.189 155.375 459.789 153.075C457.389 150.775 456.189 147.425 456.189 143.025V123.75H449.589V116.25H456.189V107.1H465.564V116.25H476.289V123.75H465.564V142.8C465.564 144.75 466.039 146.25 466.989 147.3C467.939 148.3 469.314 148.8 471.114 148.8C473.214 148.8 474.964 148.25 476.364 147.15L478.989 153.825Z" fill="#75C27D"/>
<path d="M284.799 156.75C279.499 156.75 274.699 155.6 270.399 153.3C266.149 150.95 262.799 147.725 260.349 143.625C257.949 139.525 256.749 134.9 256.749 129.75C256.749 124.6 257.974 119.975 260.424 115.875C262.874 111.775 266.224 108.575 270.474 106.275C274.774 103.925 279.574 102.75 284.874 102.75C289.174 102.75 293.099 103.5 296.649 105C300.199 106.5 303.199 108.675 305.649 111.525L299.349 117.45C295.549 113.35 290.874 111.3 285.324 111.3C281.724 111.3 278.499 112.1 275.649 113.7C272.799 115.25 270.574 117.425 268.974 120.225C267.374 123.025 266.574 126.2 266.574 129.75C266.574 133.3 267.374 136.475 268.974 139.275C270.574 142.075 272.799 144.275 275.649 145.875C278.499 147.425 281.724 148.2 285.324 148.2C290.874 148.2 295.549 146.125 299.349 141.975L305.649 147.975C303.199 150.825 300.174 153 296.574 154.5C293.024 156 289.099 156.75 284.799 156.75ZM336.816 115.5C341.866 115.5 345.916 116.975 348.966 119.925C352.016 122.875 353.541 127.25 353.541 133.05V156H344.166V134.25C344.166 130.75 343.341 128.125 341.691 126.375C340.041 124.575 337.691 123.675 334.641 123.675C331.191 123.675 328.466 124.725 326.466 126.825C324.466 128.875 323.466 131.85 323.466 135.75V156H314.091V100.35H323.466V120.6C325.016 118.95 326.916 117.7 329.166 116.85C331.466 115.95 334.016 115.5 336.816 115.5ZM403.45 136.2C403.45 136.85 403.4 137.775 403.3 138.975H371.875C372.425 141.925 373.85 144.275 376.15 146.025C378.5 147.725 381.4 148.575 384.85 148.575C389.25 148.575 392.875 147.125 395.725 144.225L400.75 150C398.95 152.15 396.675 153.775 393.925 154.875C391.175 155.975 388.075 156.525 384.625 156.525C380.225 156.525 376.35 155.65 373 153.9C369.65 152.15 367.05 149.725 365.2 146.625C363.4 143.475 362.5 139.925 362.5 135.975C362.5 132.075 363.375 128.575 365.125 125.475C366.925 122.325 369.4 119.875 372.55 118.125C375.7 116.375 379.25 115.5 383.2 115.5C387.1 115.5 390.575 116.375 393.625 118.125C396.725 119.825 399.125 122.25 400.825 125.4C402.575 128.5 403.45 132.1 403.45 136.2ZM383.2 123C380.2 123 377.65 123.9 375.55 125.7C373.5 127.45 372.25 129.8 371.8 132.75H394.525C394.125 129.85 392.9 127.5 390.85 125.7C388.8 123.9 386.25 123 383.2 123ZM426.657 115.5C432.557 115.5 437.057 116.925 440.157 119.775C443.307 122.575 444.882 126.825 444.882 132.525V156H436.032V151.125C434.882 152.875 433.232 154.225 431.082 155.175C428.982 156.075 426.432 156.525 423.432 156.525C420.432 156.525 417.807 156.025 415.557 155.025C413.307 153.975 411.557 152.55 410.307 150.75C409.107 148.9 408.507 146.825 408.507 144.525C408.507 140.925 409.832 138.05 412.482 135.9C415.182 133.7 419.407 132.6 425.157 132.6H435.507V132C435.507 129.2 434.657 127.05 432.957 125.55C431.307 124.05 428.832 123.3 425.532 123.3C423.282 123.3 421.057 123.65 418.857 124.35C416.707 125.05 414.882 126.025 413.382 127.275L409.707 120.45C411.807 118.85 414.332 117.625 417.282 116.775C420.232 115.925 423.357 115.5 426.657 115.5ZM425.382 149.7C427.732 149.7 429.807 149.175 431.607 148.125C433.457 147.025 434.757 145.475 435.507 143.475V138.825H425.832C420.432 138.825 417.732 140.6 417.732 144.15C417.732 145.85 418.407 147.2 419.757 148.2C421.107 149.2 422.982 149.7 425.382 149.7ZM480.989 153.825C479.889 154.725 478.539 155.4 476.939 155.85C475.389 156.3 473.739 156.525 471.989 156.525C467.589 156.525 464.189 155.375 461.789 153.075C459.389 150.775 458.189 147.425 458.189 143.025V123.75H451.589V116.25H458.189V107.1H467.564V116.25H478.289V123.75H467.564V142.8C467.564 144.75 468.039 146.25 468.989 147.3C469.939 148.3 471.314 148.8 473.114 148.8C475.214 148.8 476.964 148.25 478.364 147.15L480.989 153.825Z" fill="#ECAA73"/>
</svg>
