<svg width="20" height="20" viewBox="0 0 20 20" fill="none" xmlns="http://www.w3.org/2000/svg">
<path d="M10.9119 10.0087L16.0613 4.88747C16.3082 4.64309 16.3082 4.24747 16.0613 4.00372C15.815 3.75934 15.415 3.75934 15.1688 4.00372L10.0238 9.12059L4.83129 3.92747C4.58504 3.68059 4.18504 3.68059 3.93879 3.92747C3.69254 4.17497 3.69254 4.57559 3.93879 4.82247L9.12754 10.0118L3.92004 15.1906C3.67379 15.435 3.67379 15.8306 3.92004 16.0743C4.16629 16.3187 4.56629 16.3187 4.81254 16.0743L10.0157 10.9L15.1875 16.0725C15.4338 16.3193 15.8338 16.3193 16.08 16.0725C16.3263 15.825 16.3263 15.4243 16.08 15.1775L10.9119 10.0087Z" fill="#75C27D"/>
</svg>
