<svg width="64" height="64" xmlns="http://www.w3.org/2000/svg">

 <g>
  <title>background</title>
  <rect fill="none" id="canvas_background" height="402" width="582" y="-1" x="-1"/>
 </g>
 <g>
  <title>Layer 1</title>
  <polygon fill="#713604" points="24.5,22.899993896484375 27.5,22.899993896484375 27.5,46.899993896484375 24.5,46.899993896484375 " id="Fill-6" class="st0"/>
  <polygon fill="#713604" points="30.5,22.899993896484375 33.5,22.899993896484375 33.5,46.899993896484375 30.5,46.899993896484375 " id="Fill-7" class="st0"/>
  <polygon fill="#713604" points="36.5,22.899993896484375 39.5,22.899993896484375 39.5,46.899993896484375 36.5,46.899993896484375 " id="Fill-8" class="st0"/>
  <polygon fill="#713604" points="12.5,13.899993896484375 51.5,13.899993896484375 51.5,16.899993896484375 12.5,16.899993896484375 " id="Fill-9" class="st0"/>
  <path fill="#713604" id="Fill-10" d="m39.4,15.4l-2.8,0l0,-3c0,-0.9 -0.7,-1.6 -1.6,-1.6l-6,0c-0.9,0 -1.6,0.7 -1.6,1.6l0,3l-2.8,0l0,-3c0,-2.4 2,-4.4 4.4,-4.4l6,0c2.4,0 4.4,2 4.4,4.4l0,3" class="st0"/>
  <path fill="#713604" id="Fill-11" d="m41,55.9l-18,0c-2.4,0 -4.5,-2 -4.7,-4.4l-2.8,-36l3,-0.2l2.8,36c0.1,0.9 0.9,1.6 1.7,1.6l18,0c0.9,0 1.7,-0.8 1.7,-1.6l2.8,-36l3,0.2l-2.8,36c-0.2,2.5 -2.3,4.4 -4.7,4.4" class="st0"/>
 </g>
</svg>