<svg width="50" height="50" viewBox="0 0 50 50" fill="none" xmlns="http://www.w3.org/2000/svg">
<path d="M40.8479 39.0542C40.8479 40.8896 39.3563 42.4375 37.5208 42.4375H10.8979C9.0625 42.4375 7.57083 40.8896 7.57083 39.0542V12.4312C7.57083 10.5958 9.0625 9.15832 10.8979 9.15832H26.4271V6.94165H10.8979C7.83958 6.94165 5.35208 9.37498 5.35208 12.4333V39.0542C5.35208 42.1125 7.83958 44.6542 10.8979 44.6542H37.5188C40.5771 44.6542 43.0646 42.1104 43.0646 39.0542V23.5792H40.8458V39.0542H40.8479Z" fill="#713604"/>
<path d="M43.3479 6.60425C41.6729 4.92716 38.75 4.92716 37.0729 6.60425L22.1917 21.4855C22.05 21.6272 21.9479 21.8063 21.9 22.0001L20.3333 28.273C20.2396 28.6501 20.35 29.0501 20.625 29.3272C20.8354 29.5376 21.1187 29.6522 21.4083 29.6522C21.4979 29.6522 21.5875 29.6417 21.6771 29.6188L27.9521 28.0501C28.1479 28.0022 28.325 27.9001 28.4667 27.7584L43.3479 12.8772C44.1854 12.0397 44.6479 10.9251 44.6479 9.73966C44.6479 8.55425 44.1875 7.44175 43.3479 6.60425ZM27.1167 25.973L22.9333 27.0188L23.9792 22.8355L36.2896 10.5251L39.4271 13.6626L27.1167 25.973ZM41.7792 11.3084L40.9958 12.0917L37.8583 8.95425L38.6417 8.17091C39.4792 7.33341 40.9417 7.33341 41.7792 8.17091C42.1979 8.58966 42.4291 9.14591 42.4291 9.73966C42.4291 10.3334 42.1979 10.8897 41.7792 11.3084Z" fill="#713604"/>
</svg>
