<svg width="64" height="64" xmlns="http://www.w3.org/2000/svg">

 <title/>
 <g>
  <title>background</title>
  <rect fill="none" id="canvas_background" height="66" width="66" y="-1" x="-1"/>
 </g>
 <g>
  <title>Layer 1</title>
  <path fill="#6c3607" id="svg_1" d="m55,28l-21,0a1,1 0 0 1 0,-2l21,0a1,1 0 0 1 0,2z" class="cls-1"/>
  <path canvas="none" canvas-opacity="1" fill="#6c3607" id="svg_2" d="m28,57a1,1 0 0 1 -0.45,-0.11l-18.89,-9.44a3,3 0 0 1 -1.66,-2.69l0,-34.76a3,3 0 0 1 3,-3l9,0a1,1 0 0 1 0,2l-7.66,0l17.09,8.1a1,1 0 0 1 0.57,0.9l0,38a1,1 0 0 1 -0.47,0.85a1,1 0 0 1 -0.53,0.15zm-19,-46.89l0,34.65a1,1 0 0 0 0.55,0.9l17.45,8.72l0,-35.75l-18,-8.52z" class="cls-1"/>
  <path fill="#6c3607" id="svg_3" d="m47,37a1,1 0 0 1 -0.71,-0.29a1,1 0 0 1 0,-1.42l8.3,-8.29l-8.3,-8.29a1,1 0 0 1 1.42,-1.42l9,9a1,1 0 0 1 0,1.42l-9,9a1,1 0 0 1 -0.71,0.29z" class="cls-1"/>
  <path fill="#6c3607" id="svg_4" d="m37,47l-9,0a1,1 0 0 1 0,-2l9,0a1,1 0 0 0 1,-1l0,-8a1,1 0 0 1 2,0l0,8a3,3 0 0 1 -3,3z" class="cls-1"/>
  <path canvas="none" canvas-opacity="1" fill="#6c3607" id="svg_5" d="m39,19a1,1 0 0 1 -1,-1l0,-8a1,1 0 0 0 -1,-1l-22,0a1,1 0 0 1 0,-2l22,0a3,3 0 0 1 3,3l0,8a1,1 0 0 1 -1,1z" class="cls-1"/>
 </g>
</svg>