<svg width="68" height="68" viewBox="0 0 68 68" fill="none" xmlns="http://www.w3.org/2000/svg">
<path d="M55.4359 29.75H38.25V12.5641C38.25 10.3195 36.3508 8.5 34 8.5C31.6492 8.5 29.75 10.3195 29.75 12.5641V29.75H12.5641C10.3195 29.75 8.5 31.6492 8.5 34C8.5 36.3508 10.3195 38.25 12.5641 38.25H29.75V55.4359C29.75 57.6805 31.6492 59.5 34 59.5C36.3508 59.5 38.25 57.6805 38.25 55.4359V38.25H55.4359C57.6805 38.25 59.5 36.3508 59.5 34C59.5 31.6492 57.6805 29.75 55.4359 29.75Z" fill="#75C27D"/>
</svg>
