<svg width="32" height="32" xmlns="http://www.w3.org/2000/svg">

 <title/>
 <g>
  <title>background</title>
  <rect fill="none" id="canvas_background" height="402" width="582" y="-1" x="-1"/>
 </g>
 <g>
  <title>Layer 1</title>
  <path fill="#6c3607" id="svg_1" d="m30,15a1,1 0 0 1 -0.58,-0.19l-13.42,-9.58l-13.42,9.58a1,1 0 0 1 -1.16,-1.62l14,-10a1,1 0 0 1 1.16,0l14,10a1,1 0 0 1 -0.58,1.81z" class="cls-1"/>
  <path fill="#6c3607" id="svg_2" d="m5,9a1,1 0 0 1 -1,-1l0,-4a1,1 0 0 1 1,-1l4,0a1,1 0 0 1 0,2l-3,0l0,3a1,1 0 0 1 -1,1z" class="cls-1"/>
  <path fill="#6c3607" id="svg_3" d="m25,29l-5,0a1,1 0 0 1 -1,-1l0,-7l-6,0l0,7a1,1 0 0 1 -1,1l-5,0a3,3 0 0 1 -3,-3l0,-10a1,1 0 0 1 2,0l0,10a1,1 0 0 0 1,1l4,0l0,-7a1,1 0 0 1 1,-1l8,0a1,1 0 0 1 1,1l0,7l4,0a1,1 0 0 0 1,-1l0,-10a1,1 0 0 1 2,0l0,10a3,3 0 0 1 -3,3z" class="cls-1"/>
 </g>
</svg>