<svg width="594" height="267" viewBox="0 0 594 267" fill="none" xmlns="http://www.w3.org/2000/svg">
<rect x="3.5" y="1.5" width="588" height="264" rx="3.5" fill="white" stroke="#75C27D" stroke-width="3"/>
<path d="M93.4283 62V90H89.4283V77.52H73.3483V90H69.3483V62H73.3483V74.04H89.4283V62H93.4283ZM120.681 79.52C120.681 79.8133 120.654 80.2 120.601 80.68H103.401C103.641 82.5467 104.454 84.0533 105.841 85.2C107.254 86.32 109.001 86.88 111.081 86.88C113.614 86.88 115.654 86.0267 117.201 84.32L119.321 86.8C118.361 87.92 117.161 88.7733 115.721 89.36C114.307 89.9467 112.721 90.24 110.961 90.24C108.721 90.24 106.734 89.7867 105.001 88.88C103.267 87.9467 101.921 86.6533 100.961 85C100.027 83.3467 99.5608 81.48 99.5608 79.4C99.5608 77.3467 100.014 75.4933 100.921 73.84C101.854 72.1867 103.121 70.9067 104.721 70C106.347 69.0667 108.174 68.6 110.201 68.6C112.227 68.6 114.027 69.0667 115.601 70C117.201 70.9067 118.441 72.1867 119.321 73.84C120.227 75.4933 120.681 77.3867 120.681 79.52ZM110.201 71.84C108.361 71.84 106.814 72.4 105.561 73.52C104.334 74.64 103.614 76.1067 103.401 77.92H117.001C116.787 76.1333 116.054 74.68 114.801 73.56C113.574 72.4133 112.041 71.84 110.201 71.84ZM146.278 68.8V90H142.438V72.16H130.478V90H126.638V68.8H146.278ZM164.948 68.6C167.002 68.6 168.842 69.0533 170.468 69.96C172.095 70.8667 173.362 72.1333 174.268 73.76C175.202 75.3867 175.668 77.2667 175.668 79.4C175.668 81.5333 175.202 83.4267 174.268 85.08C173.362 86.7067 172.095 87.9733 170.468 88.88C168.842 89.7867 167.002 90.24 164.948 90.24C163.428 90.24 162.028 89.9467 160.748 89.36C159.495 88.7733 158.428 87.92 157.548 86.8V97.76H153.708V68.8H157.388V72.16C158.242 70.9867 159.322 70.1067 160.628 69.52C161.935 68.9067 163.375 68.6 164.948 68.6ZM164.628 86.88C165.988 86.88 167.202 86.5733 168.268 85.96C169.362 85.32 170.215 84.44 170.828 83.32C171.468 82.1733 171.788 80.8667 171.788 79.4C171.788 77.9333 171.468 76.64 170.828 75.52C170.215 74.3733 169.362 73.4933 168.268 72.88C167.202 72.2667 165.988 71.96 164.628 71.96C163.295 71.96 162.082 72.28 160.988 72.92C159.922 73.5333 159.068 74.4 158.428 75.52C157.815 76.64 157.508 77.9333 157.508 79.4C157.508 80.8667 157.815 82.1733 158.428 83.32C159.042 84.44 159.895 85.32 160.988 85.96C162.082 86.5733 163.295 86.88 164.628 86.88ZM188.612 68.6C191.545 68.6 193.785 69.32 195.332 70.76C196.905 72.2 197.692 74.3467 197.692 77.2V90H194.052V87.2C193.412 88.1867 192.492 88.9467 191.292 89.48C190.119 89.9867 188.719 90.24 187.092 90.24C184.719 90.24 182.812 89.6667 181.372 88.52C179.959 87.3733 179.252 85.8667 179.252 84C179.252 82.1333 179.932 80.64 181.292 79.52C182.652 78.3733 184.812 77.8 187.772 77.8H193.852V77.04C193.852 75.3867 193.372 74.12 192.412 73.24C191.452 72.36 190.039 71.92 188.172 71.92C186.919 71.92 185.692 72.1333 184.492 72.56C183.292 72.96 182.279 73.5067 181.452 74.2L179.852 71.32C180.945 70.44 182.252 69.7733 183.772 69.32C185.292 68.84 186.905 68.6 188.612 68.6ZM187.732 87.28C189.199 87.28 190.465 86.96 191.532 86.32C192.599 85.6533 193.372 84.72 193.852 83.52V80.56H187.932C184.679 80.56 183.052 81.6533 183.052 83.84C183.052 84.9067 183.465 85.7467 184.292 86.36C185.119 86.9733 186.265 87.28 187.732 87.28ZM219.047 79C221.793 79.6933 223.167 81.4133 223.167 84.16C223.167 86.0267 222.46 87.4667 221.047 88.48C219.66 89.4933 217.58 90 214.807 90H204.607V68.8H214.447C216.953 68.8 218.913 69.28 220.327 70.24C221.74 71.1733 222.447 72.5067 222.447 74.24C222.447 75.36 222.14 76.3333 221.527 77.16C220.94 77.96 220.113 78.5733 219.047 79ZM208.367 77.92H214.127C215.593 77.92 216.7 77.6533 217.447 77.12C218.22 76.5867 218.607 75.8133 218.607 74.8C218.607 72.7733 217.113 71.76 214.127 71.76H208.367V77.92ZM214.527 87.04C216.127 87.04 217.327 86.7867 218.127 86.28C218.927 85.7733 219.327 84.9867 219.327 83.92C219.327 82.8267 218.953 82.0133 218.207 81.48C217.487 80.9467 216.34 80.68 214.767 80.68H208.367V87.04H214.527ZM229.177 68.8H233.017V84.24L246.017 68.8H249.497V90H245.657V74.56L232.697 90H229.177V68.8ZM275.15 68.8V90H271.31V72.16H262.19L261.95 76.88C261.817 79.7333 261.564 82.12 261.19 84.04C260.817 85.9333 260.204 87.4533 259.35 88.6C258.497 89.7467 257.31 90.32 255.79 90.32C255.097 90.32 254.31 90.2 253.43 89.96L253.67 86.72C254.017 86.8 254.337 86.84 254.63 86.84C255.697 86.84 256.497 86.3733 257.03 85.44C257.564 84.5067 257.91 83.4 258.07 82.12C258.23 80.84 258.377 79.0133 258.51 76.64L258.87 68.8H275.15ZM292.375 76C295.069 76.0267 297.122 76.64 298.535 77.84C299.949 79.04 300.655 80.7333 300.655 82.92C300.655 85.2133 299.882 86.9867 298.335 88.24C296.815 89.4667 294.629 90.0667 291.775 90.04L282.575 90V68.8H286.415V75.96L292.375 76ZM291.455 87.12C293.189 87.1467 294.495 86.8 295.375 86.08C296.282 85.36 296.735 84.2933 296.735 82.88C296.735 81.4933 296.295 80.48 295.415 79.84C294.562 79.2 293.242 78.8667 291.455 78.84L286.415 78.76V87.08L291.455 87.12ZM305.583 68.8H309.423V77.8H321.503V68.8H325.343V90H321.503V81.12H309.423V90H305.583V68.8ZM341.89 90.24C339.783 90.24 337.89 89.7733 336.21 88.84C334.53 87.9067 333.21 86.6267 332.25 85C331.317 83.3467 330.85 81.48 330.85 79.4C330.85 77.32 331.317 75.4667 332.25 73.84C333.21 72.1867 334.53 70.9067 336.21 70C337.89 69.0667 339.783 68.6 341.89 68.6C343.997 68.6 345.877 69.0667 347.53 70C349.21 70.9067 350.517 72.1867 351.45 73.84C352.41 75.4667 352.89 77.32 352.89 79.4C352.89 81.48 352.41 83.3467 351.45 85C350.517 86.6267 349.21 87.9067 347.53 88.84C345.877 89.7733 343.997 90.24 341.89 90.24ZM341.89 86.88C343.25 86.88 344.463 86.5733 345.53 85.96C346.623 85.32 347.477 84.44 348.09 83.32C348.703 82.1733 349.01 80.8667 349.01 79.4C349.01 77.9333 348.703 76.64 348.09 75.52C347.477 74.3733 346.623 73.4933 345.53 72.88C344.463 72.2667 343.25 71.96 341.89 71.96C340.53 71.96 339.303 72.2667 338.21 72.88C337.143 73.4933 336.29 74.3733 335.65 75.52C335.037 76.64 334.73 77.9333 334.73 79.4C334.73 80.8667 335.037 82.1733 335.65 83.32C336.29 84.44 337.143 85.32 338.21 85.96C339.303 86.5733 340.53 86.88 341.89 86.88ZM383.617 79C386.364 79.6933 387.737 81.4133 387.737 84.16C387.737 86.0267 387.03 87.4667 385.617 88.48C384.23 89.4933 382.15 90 379.377 90H369.177V68.8H379.017C381.524 68.8 383.484 69.28 384.897 70.24C386.31 71.1733 387.017 72.5067 387.017 74.24C387.017 75.36 386.71 76.3333 386.097 77.16C385.51 77.96 384.684 78.5733 383.617 79ZM372.937 77.92H378.697C380.164 77.92 381.27 77.6533 382.017 77.12C382.79 76.5867 383.177 75.8133 383.177 74.8C383.177 72.7733 381.684 71.76 378.697 71.76H372.937V77.92ZM379.097 87.04C380.697 87.04 381.897 86.7867 382.697 86.28C383.497 85.7733 383.897 84.9867 383.897 83.92C383.897 82.8267 383.524 82.0133 382.777 81.48C382.057 80.9467 380.91 80.68 379.337 80.68H372.937V87.04H379.097ZM408.187 79C410.934 79.6933 412.307 81.4133 412.307 84.16C412.307 86.0267 411.601 87.4667 410.187 88.48C408.801 89.4933 406.721 90 403.947 90H393.747V68.8H403.587C406.094 68.8 408.054 69.28 409.467 70.24C410.881 71.1733 411.587 72.5067 411.587 74.24C411.587 75.36 411.281 76.3333 410.667 77.16C410.081 77.96 409.254 78.5733 408.187 79ZM397.507 77.92H403.267C404.734 77.92 405.841 77.6533 406.587 77.12C407.361 76.5867 407.747 75.8133 407.747 74.8C407.747 72.7733 406.254 71.76 403.267 71.76H397.507V77.92ZM403.667 87.04C405.267 87.04 406.467 86.7867 407.267 86.28C408.067 85.7733 408.467 84.9867 408.467 83.92C408.467 82.8267 408.094 82.0133 407.347 81.48C406.627 80.9467 405.481 80.68 403.907 80.68H397.507V87.04H403.667ZM437.478 79.52C437.478 79.8133 437.451 80.2 437.398 80.68H420.198C420.438 82.5467 421.251 84.0533 422.638 85.2C424.051 86.32 425.798 86.88 427.878 86.88C430.411 86.88 432.451 86.0267 433.998 84.32L436.118 86.8C435.158 87.92 433.958 88.7733 432.518 89.36C431.104 89.9467 429.518 90.24 427.758 90.24C425.518 90.24 423.531 89.7867 421.798 88.88C420.064 87.9467 418.718 86.6533 417.758 85C416.824 83.3467 416.358 81.48 416.358 79.4C416.358 77.3467 416.811 75.4933 417.718 73.84C418.651 72.1867 419.918 70.9067 421.518 70C423.144 69.0667 424.971 68.6 426.998 68.6C429.024 68.6 430.824 69.0667 432.398 70C433.998 70.9067 435.238 72.1867 436.118 73.84C437.024 75.4933 437.478 77.3867 437.478 79.52ZM426.998 71.84C425.158 71.84 423.611 72.4 422.358 73.52C421.131 74.64 420.411 76.1067 420.198 77.92H433.798C433.584 76.1333 432.851 74.68 431.598 73.56C430.371 72.4133 428.838 71.84 426.998 71.84ZM464.643 86.64V94.92H461.043V90H443.323V94.92H439.683V86.64H440.803C442.163 86.56 443.097 85.6 443.603 83.76C444.11 81.92 444.457 79.32 444.643 75.96L444.963 68.8H461.403V86.64H464.643ZM448.163 76.24C448.057 78.9067 447.83 81.12 447.483 82.88C447.163 84.6133 446.563 85.8667 445.683 86.64H457.563V72.16H448.363L448.163 76.24ZM488.806 79.52C488.806 79.8133 488.779 80.2 488.726 80.68H471.526C471.766 82.5467 472.579 84.0533 473.966 85.2C475.379 86.32 477.126 86.88 479.206 86.88C481.739 86.88 483.779 86.0267 485.326 84.32L487.446 86.8C486.486 87.92 485.286 88.7733 483.846 89.36C482.432 89.9467 480.846 90.24 479.086 90.24C476.846 90.24 474.859 89.7867 473.126 88.88C471.392 87.9467 470.046 86.6533 469.086 85C468.152 83.3467 467.686 81.48 467.686 79.4C467.686 77.3467 468.139 75.4933 469.046 73.84C469.979 72.1867 471.246 70.9067 472.846 70C474.472 69.0667 476.299 68.6 478.326 68.6C480.352 68.6 482.152 69.0667 483.726 70C485.326 70.9067 486.566 72.1867 487.446 73.84C488.352 75.4933 488.806 77.3867 488.806 79.52ZM478.326 71.84C476.486 71.84 474.939 72.4 473.686 73.52C472.459 74.64 471.739 76.1067 471.526 77.92H485.126C484.912 76.1333 484.179 74.68 482.926 73.56C481.699 72.4133 480.166 71.84 478.326 71.84ZM474.566 65.04C474.006 65.04 473.526 64.8533 473.126 64.48C472.726 64.08 472.526 63.5867 472.526 63C472.526 62.4133 472.726 61.92 473.126 61.52C473.526 61.12 474.006 60.92 474.566 60.92C475.126 60.92 475.606 61.12 476.006 61.52C476.406 61.92 476.606 62.4133 476.606 63C476.606 63.5867 476.406 64.08 476.006 64.48C475.606 64.8533 475.126 65.04 474.566 65.04ZM482.006 65.04C481.446 65.04 480.966 64.8533 480.566 64.48C480.166 64.08 479.966 63.5867 479.966 63C479.966 62.4133 480.166 61.92 480.566 61.52C480.966 61.12 481.446 60.92 482.006 60.92C482.566 60.92 483.046 61.12 483.446 61.52C483.846 61.92 484.046 62.4133 484.046 63C484.046 63.5867 483.846 64.08 483.446 64.48C483.046 64.8533 482.566 65.04 482.006 65.04ZM494.763 68.8H498.603V77.8H510.683V68.8H514.523V90H510.683V81.12H498.603V90H494.763V68.8ZM128.568 117.8V139H124.728V121.16H115.608L115.368 125.88C115.235 128.733 114.982 131.12 114.608 133.04C114.235 134.933 113.622 136.453 112.768 137.6C111.915 138.747 110.728 139.32 109.208 139.32C108.515 139.32 107.728 139.2 106.848 138.96L107.088 135.72C107.435 135.8 107.755 135.84 108.048 135.84C109.115 135.84 109.915 135.373 110.448 134.44C110.982 133.507 111.328 132.4 111.488 131.12C111.648 129.84 111.795 128.013 111.928 125.64L112.288 117.8H128.568ZM145.073 139.24C142.967 139.24 141.073 138.773 139.393 137.84C137.713 136.907 136.393 135.627 135.433 134C134.5 132.347 134.033 130.48 134.033 128.4C134.033 126.32 134.5 124.467 135.433 122.84C136.393 121.187 137.713 119.907 139.393 119C141.073 118.067 142.967 117.6 145.073 117.6C147.18 117.6 149.06 118.067 150.713 119C152.393 119.907 153.7 121.187 154.633 122.84C155.593 124.467 156.073 126.32 156.073 128.4C156.073 130.48 155.593 132.347 154.633 134C153.7 135.627 152.393 136.907 150.713 137.84C149.06 138.773 147.18 139.24 145.073 139.24ZM145.073 135.88C146.433 135.88 147.647 135.573 148.713 134.96C149.807 134.32 150.66 133.44 151.273 132.32C151.887 131.173 152.193 129.867 152.193 128.4C152.193 126.933 151.887 125.64 151.273 124.52C150.66 123.373 149.807 122.493 148.713 121.88C147.647 121.267 146.433 120.96 145.073 120.96C143.713 120.96 142.487 121.267 141.393 121.88C140.327 122.493 139.473 123.373 138.833 124.52C138.22 125.64 137.913 126.933 137.913 128.4C137.913 129.867 138.22 131.173 138.833 132.32C139.473 133.44 140.327 134.32 141.393 134.96C142.487 135.573 143.713 135.88 145.073 135.88ZM177.218 121.16H165.458V139H161.618V117.8H177.218V121.16ZM181.15 117.8H184.99V133.24L197.99 117.8H201.47V139H197.63V123.56L184.67 139H181.15V117.8ZM208.923 117.8H212.763V126.8H224.843V117.8H228.683V139H224.843V130.12H212.763V139H208.923V117.8ZM246.892 117.8H250.732V133.24L263.732 117.8H267.212V139H263.372V123.56L250.412 139H246.892V117.8ZM292.865 117.8V139H289.025V121.16H279.905L279.665 125.88C279.532 128.733 279.279 131.12 278.905 133.04C278.532 134.933 277.919 136.453 277.065 137.6C276.212 138.747 275.025 139.32 273.505 139.32C272.812 139.32 272.025 139.2 271.145 138.96L271.385 135.72C271.732 135.8 272.052 135.84 272.345 135.84C273.412 135.84 274.212 135.373 274.745 134.44C275.279 133.507 275.625 132.4 275.785 131.12C275.945 129.84 276.092 128.013 276.225 125.64L276.585 117.8H292.865ZM300.29 117.8H304.13V133.24L317.13 117.8H320.61V139H316.77V123.56L303.81 139H300.29V117.8ZM358.446 117.8V139H354.606V121.16H342.646V139H338.806V117.8H358.446ZM373.436 117.6C376.37 117.6 378.61 118.32 380.156 119.76C381.73 121.2 382.516 123.347 382.516 126.2V139H378.876V136.2C378.236 137.187 377.316 137.947 376.116 138.48C374.943 138.987 373.543 139.24 371.916 139.24C369.543 139.24 367.636 138.667 366.196 137.52C364.783 136.373 364.076 134.867 364.076 133C364.076 131.133 364.756 129.64 366.116 128.52C367.476 127.373 369.636 126.8 372.596 126.8H378.676V126.04C378.676 124.387 378.196 123.12 377.236 122.24C376.276 121.36 374.863 120.92 372.996 120.92C371.743 120.92 370.516 121.133 369.316 121.56C368.116 121.96 367.103 122.507 366.276 123.2L364.676 120.32C365.77 119.44 367.076 118.773 368.596 118.32C370.116 117.84 371.73 117.6 373.436 117.6ZM372.556 136.28C374.023 136.28 375.29 135.96 376.356 135.32C377.423 134.653 378.196 133.72 378.676 132.52V129.56H372.756C369.503 129.56 367.876 130.653 367.876 132.84C367.876 133.907 368.29 134.747 369.116 135.36C369.943 135.973 371.09 136.28 372.556 136.28ZM400.671 117.6C402.724 117.6 404.564 118.053 406.191 118.96C407.818 119.867 409.084 121.133 409.991 122.76C410.924 124.387 411.391 126.267 411.391 128.4C411.391 130.533 410.924 132.427 409.991 134.08C409.084 135.707 407.818 136.973 406.191 137.88C404.564 138.787 402.724 139.24 400.671 139.24C399.151 139.24 397.751 138.947 396.471 138.36C395.218 137.773 394.151 136.92 393.271 135.8V146.76H389.431V117.8H393.111V121.16C393.964 119.987 395.044 119.107 396.351 118.52C397.658 117.907 399.098 117.6 400.671 117.6ZM400.351 135.88C401.711 135.88 402.924 135.573 403.991 134.96C405.084 134.32 405.938 133.44 406.551 132.32C407.191 131.173 407.511 129.867 407.511 128.4C407.511 126.933 407.191 125.64 406.551 124.52C405.938 123.373 405.084 122.493 403.991 121.88C402.924 121.267 401.711 120.96 400.351 120.96C399.018 120.96 397.804 121.28 396.711 121.92C395.644 122.533 394.791 123.4 394.151 124.52C393.538 125.64 393.231 126.933 393.231 128.4C393.231 129.867 393.538 131.173 394.151 132.32C394.764 133.44 395.618 134.32 396.711 134.96C397.804 135.573 399.018 135.88 400.351 135.88ZM426.05 139.24C423.943 139.24 422.05 138.773 420.37 137.84C418.69 136.907 417.37 135.627 416.41 134C415.477 132.347 415.01 130.48 415.01 128.4C415.01 126.32 415.477 124.467 416.41 122.84C417.37 121.187 418.69 119.907 420.37 119C422.05 118.067 423.943 117.6 426.05 117.6C428.157 117.6 430.037 118.067 431.69 119C433.37 119.907 434.677 121.187 435.61 122.84C436.57 124.467 437.05 126.32 437.05 128.4C437.05 130.48 436.57 132.347 435.61 134C434.677 135.627 433.37 136.907 431.69 137.84C430.037 138.773 428.157 139.24 426.05 139.24ZM426.05 135.88C427.41 135.88 428.623 135.573 429.69 134.96C430.783 134.32 431.637 133.44 432.25 132.32C432.863 131.173 433.17 129.867 433.17 128.4C433.17 126.933 432.863 125.64 432.25 124.52C431.637 123.373 430.783 122.493 429.69 121.88C428.623 121.267 427.41 120.96 426.05 120.96C424.69 120.96 423.463 121.267 422.37 121.88C421.303 122.493 420.45 123.373 419.81 124.52C419.197 125.64 418.89 126.933 418.89 128.4C418.89 129.867 419.197 131.173 419.81 132.32C420.45 133.44 421.303 134.32 422.37 134.96C423.463 135.573 424.69 135.88 426.05 135.88ZM460.639 117.8V139H456.799V121.16H447.679L447.439 125.88C447.305 128.733 447.052 131.12 446.679 133.04C446.305 134.933 445.692 136.453 444.839 137.6C443.985 138.747 442.799 139.32 441.279 139.32C440.585 139.32 439.799 139.2 438.919 138.96L439.159 135.72C439.505 135.8 439.825 135.84 440.119 135.84C441.185 135.84 441.985 135.373 442.519 134.44C443.052 133.507 443.399 132.4 443.559 131.12C443.719 129.84 443.865 128.013 443.999 125.64L444.359 117.8H460.639ZM477.864 125C480.557 125.027 482.61 125.64 484.024 126.84C485.437 128.04 486.144 129.733 486.144 131.92C486.144 134.213 485.37 135.987 483.824 137.24C482.304 138.467 480.117 139.067 477.264 139.04L468.064 139V117.8H471.904V124.96L477.864 125ZM476.944 136.12C478.677 136.147 479.984 135.8 480.864 135.08C481.77 134.36 482.224 133.293 482.224 131.88C482.224 130.493 481.784 129.48 480.904 128.84C480.05 128.2 478.73 127.867 476.944 127.84L471.904 127.76V136.08L476.944 136.12Z" fill="#ECAA73"/>
</svg>
