<svg width="32" height="32" xmlns="http://www.w3.org/2000/svg">
 <title/>

 <g>
  <title>background</title>
  <rect fill="none" id="canvas_background" height="402" width="582" y="-1" x="-1"/>
 </g>
 <g>
  <title>Layer 1</title>
  <path fill="#6c3607" id="login_account_enter_door" d="m27,3l0,26a1,1 0 0 1 -1,1l-20,0a1,1 0 0 1 -1,-1l0,-2l2,0l0,1l18,0l0,-24l-18,0l0,3l-2,0l0,-4a1,1 0 0 1 1,-1l20,0a1,1 0 0 1 1,1zm-14.71,17.29l1.42,1.42l5,-5a1,1 0 0 0 0,-1.42l-5,-5l-1.42,1.42l3.3,3.29l-10.59,0l0,2l10.59,0l-3.3,3.29z"/>
 </g>
</svg>