<svg width="24" height="24" viewBox="0 0 24 24" fill="none" xmlns="http://www.w3.org/2000/svg">
<path d="M12 14C14.7614 14 17 11.3137 17 8C17 4.68629 14.7614 2 12 2C9.23858 2 7 4.68629 7 8C7 11.3137 9.23858 14 12 14Z" fill="#773D0B"/>
<path d="M21.8 19.0999C20.9 17.2999 19.2 15.7999 17 14.8999C16.4 14.6999 15.7 14.6999 15.2 14.9999C14.2 15.5999 13.2 15.8999 12 15.8999C10.8 15.8999 9.79997 15.5999 8.79997 14.9999C8.29997 14.7999 7.59997 14.6999 6.99997 14.9999C4.79997 15.8999 3.09997 17.3999 2.19997 19.1999C1.49997 20.4999 2.59997 21.9999 4.09997 21.9999H19.9C21.4 21.9999 22.5 20.4999 21.8 19.0999Z" fill="#773D0B"/>
</svg>
