<svg width="42" height="42" viewBox="0 0 42 42" fill="none" xmlns="http://www.w3.org/2000/svg">
<path d="M38.9287 7.02624C39.4765 7.57399 39.4765 8.47174 38.9287 9.01949L27.9457 19.992C27.398 20.538 27.398 21.4375 27.9457 21.987L38.9235 32.963C39.4712 33.5107 39.4712 34.4085 38.9235 34.958L34.9247 38.9427C34.3752 39.4887 33.4757 39.4887 32.9262 38.9427L21.952 27.9685C21.4042 27.4207 20.503 27.4207 19.9552 27.9685L8.97223 38.9357C8.42448 39.4835 7.52323 39.4835 6.97548 38.9357L2.98198 34.9457C2.43423 34.398 2.43423 33.5002 2.98198 32.9507L13.9685 21.98C14.5162 21.434 14.5162 20.5345 13.9685 19.985L2.99073 9.00724C2.44123 8.45949 2.44123 7.55999 2.99073 7.01224L6.98773 3.02574C7.53898 2.47974 8.43673 2.47974 8.98623 3.02749L19.9587 14C20.5082 14.5495 21.4077 14.5495 21.9555 14.0017L32.9385 3.03449C33.4845 2.48849 34.384 2.48849 34.9352 3.03449L38.9287 7.02624Z" fill="#ECAA73"/>
</svg>
