<svg width="42" height="42" viewBox="0 0 42 42" fill="none" xmlns="http://www.w3.org/2000/svg">
<path d="M42 24.4867C42 25.5741 41.1187 26.4554 40.0312 26.4554H1.96875C0.881344 26.4554 0 25.5741 0 24.4867V17.514C0 16.4266 0.881344 15.5452 1.96875 15.5452H40.0312C41.1187 15.5452 42 16.4266 42 17.514V24.4867Z" fill="#ECAA73"/>
<path d="M24.4867 42C25.5741 42 26.4554 41.1187 26.4554 40.0312V1.96875C26.4554 0.881344 25.5741 0 24.4867 0H17.514C16.4266 0 15.5453 0.881344 15.5453 1.96875V40.0312C15.5453 41.1187 16.4266 42 17.514 42H24.4867Z" fill="#ECAA73"/>
</svg>
