<svg width="48" height="48" viewBox="0 0 48 48" fill="none" xmlns="http://www.w3.org/2000/svg">
<g clip-path="url(#clip0)">
<path d="M24 0.0169678C10.745 0.0169678 0 10.762 0 24.017C0 37.272 10.745 48.018 24 48.018C37.255 48.018 48 37.272 48 24.017C48 10.762 37.255 0.0169678 24 0.0169678ZM24 44.143C12.954 44.143 4 35.188 4 24.142C4 13.096 12.954 4.14197 24 4.14197C35.046 4.14197 44 13.096 44 24.142C44 35.188 35.046 44.143 24 44.143Z" fill="#773D0B"/>
<path d="M22.782 31.9449C21.059 31.9449 20.198 32.8299 20.198 34.5989C20.198 35.4539 20.421 36.1189 20.866 36.5929C21.311 37.0669 21.95 37.3059 22.782 37.3059C23.615 37.3059 24.255 37.0619 24.706 36.5759C25.157 36.0899 25.384 35.4309 25.384 34.5989C25.384 33.7549 25.161 33.1009 24.716 32.6379C24.271 32.1749 23.626 31.9449 22.782 31.9449Z" fill="#773D0B"/>
<path d="M29.339 12.4149C27.991 11.2899 26.169 10.7269 23.873 10.7269C21.59 10.7269 19.43 11.1999 17.387 12.1329C16.241 12.6489 16.755 13.8189 16.757 13.8249L17.215 14.7839C17.215 14.7839 17.756 15.7009 18.922 15.2499C18.934 15.2459 18.938 15.2479 18.949 15.2429C19.453 15.0319 19.963 14.8359 20.481 14.6629C21.43 14.3469 22.461 14.1879 23.575 14.1879C24.805 14.1879 25.748 14.4519 26.405 14.9789C27.062 15.5059 27.389 16.2619 27.389 17.2469C27.389 18.0909 27.186 18.8169 26.782 19.4269C26.378 20.0369 25.479 20.8919 24.085 21.9929C22.914 22.9069 22.093 23.7919 21.624 24.6469C21.155 25.5029 20.921 26.5759 20.921 27.8649C20.876 28.8029 22.071 28.9899 22.071 28.9899H22.793C22.793 28.9899 24.167 28.9979 24.377 27.8139C24.38 27.7979 24.385 27.7929 24.388 27.7769C24.436 27.0269 24.608 26.4059 24.919 25.9309C25.288 25.3679 26.019 24.6589 27.108 23.8029C28.385 22.8069 29.284 21.9979 29.805 21.3769C30.326 20.7559 30.717 20.1029 30.975 19.4169C31.233 18.7309 31.362 17.9489 31.362 17.0699C31.36 15.0929 30.687 13.5399 29.339 12.4149Z" fill="#773D0B"/>
</g>
<defs>
<clipPath id="clip0">
<rect width="48" height="48" fill="white"/>
</clipPath>
</defs>
</svg>
