<svg width="500" height="445" viewBox="0 0 500 445" fill="none" xmlns="http://www.w3.org/2000/svg">
<g filter="url(#filter0_d)">
<path d="M320.67 7.49998C322.594 4.16665 327.406 4.16667 329.33 7.5L472.224 255C474.149 258.333 471.743 262.5 467.894 262.5L182.106 262.5C178.257 262.5 175.851 258.333 177.776 255L320.67 7.49998Z" fill="#75C27D"/>
</g>
<g filter="url(#filter1_d)">
<path d="M170.67 102.5C172.594 99.1667 177.406 99.1667 179.33 102.5L322.224 350C324.149 353.333 321.743 357.5 317.894 357.5H32.1058C28.2568 357.5 25.8512 353.333 27.7757 350L170.67 102.5Z" fill="#ECAA73"/>
</g>
<g filter="url(#filter2_d)">
<path d="M279.835 40.75C280.797 39.0833 283.203 39.0833 284.165 40.75L318.806 100.75C319.768 102.417 318.566 104.5 316.641 104.5H247.359C245.434 104.5 244.232 102.417 245.194 100.75L279.835 40.75Z" stroke="#ECAA73" stroke-width="5"/>
</g>
<g filter="url(#filter3_d)">
<path d="M129.136 135.75C130.098 134.083 132.504 134.083 133.466 135.75L168.107 195.75C169.07 197.417 167.867 199.5 165.942 199.5H96.6603C94.7358 199.5 93.5329 197.417 94.4952 195.75L129.136 135.75Z" stroke="#75C27D" stroke-width="5"/>
</g>
<defs>
<filter id="filter0_d" x="173.098" y="5" width="303.803" height="265.5" filterUnits="userSpaceOnUse" color-interpolation-filters="sRGB">
<feFlood flood-opacity="0" result="BackgroundImageFix"/>
<feColorMatrix in="SourceAlpha" type="matrix" values="0 0 0 0 0 0 0 0 0 0 0 0 0 0 0 0 0 0 127 0"/>
<feOffset dy="4"/>
<feGaussianBlur stdDeviation="2"/>
<feColorMatrix type="matrix" values="0 0 0 0 0 0 0 0 0 0 0 0 0 0 0 0 0 0 0.25 0"/>
<feBlend mode="normal" in2="BackgroundImageFix" result="effect1_dropShadow"/>
<feBlend mode="normal" in="SourceGraphic" in2="effect1_dropShadow" result="shape"/>
</filter>
<filter id="filter1_d" x="23.0984" y="100" width="303.803" height="265.5" filterUnits="userSpaceOnUse" color-interpolation-filters="sRGB">
<feFlood flood-opacity="0" result="BackgroundImageFix"/>
<feColorMatrix in="SourceAlpha" type="matrix" values="0 0 0 0 0 0 0 0 0 0 0 0 0 0 0 0 0 0 127 0"/>
<feOffset dy="4"/>
<feGaussianBlur stdDeviation="2"/>
<feColorMatrix type="matrix" values="0 0 0 0 0 0 0 0 0 0 0 0 0 0 0 0 0 0 0.25 0"/>
<feBlend mode="normal" in2="BackgroundImageFix" result="effect1_dropShadow"/>
<feBlend mode="normal" in="SourceGraphic" in2="effect1_dropShadow" result="shape"/>
</filter>
<filter id="filter2_d" x="238.352" y="37" width="87.297" height="78" filterUnits="userSpaceOnUse" color-interpolation-filters="sRGB">
<feFlood flood-opacity="0" result="BackgroundImageFix"/>
<feColorMatrix in="SourceAlpha" type="matrix" values="0 0 0 0 0 0 0 0 0 0 0 0 0 0 0 0 0 0 127 0"/>
<feOffset dy="4"/>
<feGaussianBlur stdDeviation="2"/>
<feColorMatrix type="matrix" values="0 0 0 0 0 0 0 0 0 0 0 0 0 0 0 0 0 0 0.25 0"/>
<feBlend mode="normal" in2="BackgroundImageFix" result="effect1_dropShadow"/>
<feBlend mode="normal" in="SourceGraphic" in2="effect1_dropShadow" result="shape"/>
</filter>
<filter id="filter3_d" x="87.6528" y="132" width="87.297" height="78" filterUnits="userSpaceOnUse" color-interpolation-filters="sRGB">
<feFlood flood-opacity="0" result="BackgroundImageFix"/>
<feColorMatrix in="SourceAlpha" type="matrix" values="0 0 0 0 0 0 0 0 0 0 0 0 0 0 0 0 0 0 127 0"/>
<feOffset dy="4"/>
<feGaussianBlur stdDeviation="2"/>
<feColorMatrix type="matrix" values="0 0 0 0 0 0 0 0 0 0 0 0 0 0 0 0 0 0 0.25 0"/>
<feBlend mode="normal" in2="BackgroundImageFix" result="effect1_dropShadow"/>
<feBlend mode="normal" in="SourceGraphic" in2="effect1_dropShadow" result="shape"/>
</filter>
</defs>
</svg>
