<svg width="734" height="262" viewBox="0 0 734 262" fill="none" xmlns="http://www.w3.org/2000/svg">
<rect x="72.5" y="5.5" width="588" height="255" rx="3.5" fill="white" stroke="#ECAA73" stroke-width="3"/>
<rect x="76.5" y="1.5" width="588" height="255" rx="3.5" fill="white" stroke="#75C27D" stroke-width="3"/>
<path d="M199.262 156.75C195.212 156.75 191.287 156.175 187.487 155.025C183.737 153.875 180.762 152.35 178.562 150.45L181.937 142.875C184.087 144.575 186.712 145.975 189.812 147.075C192.962 148.125 196.112 148.65 199.262 148.65C203.162 148.65 206.062 148.025 207.962 146.775C209.912 145.525 210.887 143.875 210.887 141.825C210.887 140.325 210.337 139.1 209.237 138.15C208.187 137.15 206.837 136.375 205.187 135.825C203.537 135.275 201.287 134.65 198.437 133.95C194.437 133 191.187 132.05 188.687 131.1C186.237 130.15 184.112 128.675 182.312 126.675C180.562 124.625 179.687 121.875 179.687 118.425C179.687 115.525 180.462 112.9 182.012 110.55C183.612 108.15 185.987 106.25 189.137 104.85C192.337 103.45 196.237 102.75 200.837 102.75C204.037 102.75 207.187 103.15 210.287 103.95C213.387 104.75 216.062 105.9 218.312 107.4L215.237 114.975C212.937 113.625 210.537 112.6 208.037 111.9C205.537 111.2 203.112 110.85 200.762 110.85C196.912 110.85 194.037 111.5 192.137 112.8C190.287 114.1 189.362 115.825 189.362 117.975C189.362 119.475 189.887 120.7 190.937 121.65C192.037 122.6 193.412 123.35 195.062 123.9C196.712 124.45 198.962 125.075 201.812 125.775C205.712 126.675 208.912 127.625 211.412 128.625C213.912 129.575 216.037 131.05 217.787 133.05C219.587 135.05 220.487 137.75 220.487 141.15C220.487 144.05 219.687 146.675 218.087 149.025C216.537 151.375 214.162 153.25 210.962 154.65C207.762 156.05 203.862 156.75 199.262 156.75ZM253.329 153.825C252.229 154.725 250.879 155.4 249.279 155.85C247.729 156.3 246.079 156.525 244.329 156.525C239.929 156.525 236.529 155.375 234.129 153.075C231.729 150.775 230.529 147.425 230.529 143.025V123.75H223.929V116.25H230.529V107.1H239.904V116.25H250.629V123.75H239.904V142.8C239.904 144.75 240.379 146.25 241.329 147.3C242.279 148.3 243.654 148.8 245.454 148.8C247.554 148.8 249.304 148.25 250.704 147.15L253.329 153.825ZM276.342 115.5C282.242 115.5 286.742 116.925 289.842 119.775C292.992 122.575 294.567 126.825 294.567 132.525V156H285.717V151.125C284.567 152.875 282.917 154.225 280.767 155.175C278.667 156.075 276.117 156.525 273.117 156.525C270.117 156.525 267.492 156.025 265.242 155.025C262.992 153.975 261.242 152.55 259.992 150.75C258.792 148.9 258.192 146.825 258.192 144.525C258.192 140.925 259.517 138.05 262.167 135.9C264.867 133.7 269.092 132.6 274.842 132.6H285.192V132C285.192 129.2 284.342 127.05 282.642 125.55C280.992 124.05 278.517 123.3 275.217 123.3C272.967 123.3 270.742 123.65 268.542 124.35C266.392 125.05 264.567 126.025 263.067 127.275L259.392 120.45C261.492 118.85 264.017 117.625 266.967 116.775C269.917 115.925 273.042 115.5 276.342 115.5ZM275.067 149.7C277.417 149.7 279.492 149.175 281.292 148.125C283.142 147.025 284.442 145.475 285.192 143.475V138.825H275.517C270.117 138.825 267.417 140.6 267.417 144.15C267.417 145.85 268.092 147.2 269.442 148.2C270.792 149.2 272.667 149.7 275.067 149.7ZM322.873 107.4C318.923 107.4 316.948 109.55 316.948 113.85V116.25H327.973V123.75H317.248V156H307.873V123.75H301.273V116.25H307.873V113.7C307.873 109.4 309.123 106.025 311.623 103.575C314.123 101.075 317.648 99.825 322.198 99.825C325.798 99.825 328.623 100.55 330.673 102L328.048 109.05C326.448 107.95 324.723 107.4 322.873 107.4ZM350.559 107.4C346.609 107.4 344.634 109.55 344.634 113.85V116.25H355.659V123.75H344.934V156H335.559V123.75H328.959V116.25H335.559V113.7C335.559 109.4 336.809 106.025 339.309 103.575C341.809 101.075 345.334 99.825 349.884 99.825C353.484 99.825 356.309 100.55 358.359 102L355.734 109.05C354.134 107.95 352.409 107.4 350.559 107.4ZM408.122 156.75C402.772 156.75 397.947 155.6 393.647 153.3C389.347 150.95 385.972 147.725 383.522 143.625C381.072 139.475 379.847 134.85 379.847 129.75C379.847 124.65 381.072 120.05 383.522 115.95C385.972 111.8 389.347 108.575 393.647 106.275C397.947 103.925 402.772 102.75 408.122 102.75C413.472 102.75 418.297 103.925 422.597 106.275C426.897 108.575 430.272 111.775 432.722 115.875C435.172 119.975 436.397 124.6 436.397 129.75C436.397 134.9 435.172 139.525 432.722 143.625C430.272 147.725 426.897 150.95 422.597 153.3C418.297 155.6 413.472 156.75 408.122 156.75ZM408.122 148.2C411.622 148.2 414.772 147.425 417.572 145.875C420.372 144.275 422.572 142.075 424.172 139.275C425.772 136.425 426.572 133.25 426.572 129.75C426.572 126.25 425.772 123.1 424.172 120.3C422.572 117.45 420.372 115.25 417.572 113.7C414.772 112.1 411.622 111.3 408.122 111.3C404.622 111.3 401.472 112.1 398.672 113.7C395.872 115.25 393.672 117.45 392.072 120.3C390.472 123.1 389.672 126.25 389.672 129.75C389.672 133.25 390.472 136.425 392.072 139.275C393.672 142.075 395.872 144.275 398.672 145.875C401.472 147.425 404.622 148.2 408.122 148.2ZM468.557 115.5C473.607 115.5 477.657 116.975 480.707 119.925C483.757 122.875 485.282 127.25 485.282 133.05V156H475.907V134.25C475.907 130.75 475.082 128.125 473.432 126.375C471.782 124.575 469.432 123.675 466.382 123.675C462.932 123.675 460.207 124.725 458.207 126.825C456.207 128.875 455.207 131.85 455.207 135.75V156H445.832V115.95H454.757V121.125C456.307 119.275 458.257 117.875 460.607 116.925C462.957 115.975 465.607 115.5 468.557 115.5ZM497.174 100.35H506.549V156H497.174V100.35ZM556.354 115.95L537.604 159.225C535.854 163.575 533.729 166.625 531.229 168.375C528.729 170.175 525.704 171.075 522.154 171.075C520.154 171.075 518.179 170.75 516.229 170.1C514.279 169.45 512.679 168.55 511.429 167.4L515.179 160.5C516.079 161.35 517.129 162.025 518.329 162.525C519.579 163.025 520.829 163.275 522.079 163.275C523.729 163.275 525.079 162.85 526.129 162C527.229 161.15 528.229 159.725 529.129 157.725L529.804 156.15L512.329 115.95H522.079L534.679 145.575L547.354 115.95H556.354Z" fill="#75C27D"/>
<path d="M201.262 156.75C197.212 156.75 193.287 156.175 189.487 155.025C185.737 153.875 182.762 152.35 180.562 150.45L183.937 142.875C186.087 144.575 188.712 145.975 191.812 147.075C194.962 148.125 198.112 148.65 201.262 148.65C205.162 148.65 208.062 148.025 209.962 146.775C211.912 145.525 212.887 143.875 212.887 141.825C212.887 140.325 212.337 139.1 211.237 138.15C210.187 137.15 208.837 136.375 207.187 135.825C205.537 135.275 203.287 134.65 200.437 133.95C196.437 133 193.187 132.05 190.687 131.1C188.237 130.15 186.112 128.675 184.312 126.675C182.562 124.625 181.687 121.875 181.687 118.425C181.687 115.525 182.462 112.9 184.012 110.55C185.612 108.15 187.987 106.25 191.137 104.85C194.337 103.45 198.237 102.75 202.837 102.75C206.037 102.75 209.187 103.15 212.287 103.95C215.387 104.75 218.062 105.9 220.312 107.4L217.237 114.975C214.937 113.625 212.537 112.6 210.037 111.9C207.537 111.2 205.112 110.85 202.762 110.85C198.912 110.85 196.037 111.5 194.137 112.8C192.287 114.1 191.362 115.825 191.362 117.975C191.362 119.475 191.887 120.7 192.937 121.65C194.037 122.6 195.412 123.35 197.062 123.9C198.712 124.45 200.962 125.075 203.812 125.775C207.712 126.675 210.912 127.625 213.412 128.625C215.912 129.575 218.037 131.05 219.787 133.05C221.587 135.05 222.487 137.75 222.487 141.15C222.487 144.05 221.687 146.675 220.087 149.025C218.537 151.375 216.162 153.25 212.962 154.65C209.762 156.05 205.862 156.75 201.262 156.75ZM255.329 153.825C254.229 154.725 252.879 155.4 251.279 155.85C249.729 156.3 248.079 156.525 246.329 156.525C241.929 156.525 238.529 155.375 236.129 153.075C233.729 150.775 232.529 147.425 232.529 143.025V123.75H225.929V116.25H232.529V107.1H241.904V116.25H252.629V123.75H241.904V142.8C241.904 144.75 242.379 146.25 243.329 147.3C244.279 148.3 245.654 148.8 247.454 148.8C249.554 148.8 251.304 148.25 252.704 147.15L255.329 153.825ZM278.342 115.5C284.242 115.5 288.742 116.925 291.842 119.775C294.992 122.575 296.567 126.825 296.567 132.525V156H287.717V151.125C286.567 152.875 284.917 154.225 282.767 155.175C280.667 156.075 278.117 156.525 275.117 156.525C272.117 156.525 269.492 156.025 267.242 155.025C264.992 153.975 263.242 152.55 261.992 150.75C260.792 148.9 260.192 146.825 260.192 144.525C260.192 140.925 261.517 138.05 264.167 135.9C266.867 133.7 271.092 132.6 276.842 132.6H287.192V132C287.192 129.2 286.342 127.05 284.642 125.55C282.992 124.05 280.517 123.3 277.217 123.3C274.967 123.3 272.742 123.65 270.542 124.35C268.392 125.05 266.567 126.025 265.067 127.275L261.392 120.45C263.492 118.85 266.017 117.625 268.967 116.775C271.917 115.925 275.042 115.5 278.342 115.5ZM277.067 149.7C279.417 149.7 281.492 149.175 283.292 148.125C285.142 147.025 286.442 145.475 287.192 143.475V138.825H277.517C272.117 138.825 269.417 140.6 269.417 144.15C269.417 145.85 270.092 147.2 271.442 148.2C272.792 149.2 274.667 149.7 277.067 149.7ZM324.873 107.4C320.923 107.4 318.948 109.55 318.948 113.85V116.25H329.973V123.75H319.248V156H309.873V123.75H303.273V116.25H309.873V113.7C309.873 109.4 311.123 106.025 313.623 103.575C316.123 101.075 319.648 99.825 324.198 99.825C327.798 99.825 330.623 100.55 332.673 102L330.048 109.05C328.448 107.95 326.723 107.4 324.873 107.4ZM352.559 107.4C348.609 107.4 346.634 109.55 346.634 113.85V116.25H357.659V123.75H346.934V156H337.559V123.75H330.959V116.25H337.559V113.7C337.559 109.4 338.809 106.025 341.309 103.575C343.809 101.075 347.334 99.825 351.884 99.825C355.484 99.825 358.309 100.55 360.359 102L357.734 109.05C356.134 107.95 354.409 107.4 352.559 107.4ZM410.122 156.75C404.772 156.75 399.947 155.6 395.647 153.3C391.347 150.95 387.972 147.725 385.522 143.625C383.072 139.475 381.847 134.85 381.847 129.75C381.847 124.65 383.072 120.05 385.522 115.95C387.972 111.8 391.347 108.575 395.647 106.275C399.947 103.925 404.772 102.75 410.122 102.75C415.472 102.75 420.297 103.925 424.597 106.275C428.897 108.575 432.272 111.775 434.722 115.875C437.172 119.975 438.397 124.6 438.397 129.75C438.397 134.9 437.172 139.525 434.722 143.625C432.272 147.725 428.897 150.95 424.597 153.3C420.297 155.6 415.472 156.75 410.122 156.75ZM410.122 148.2C413.622 148.2 416.772 147.425 419.572 145.875C422.372 144.275 424.572 142.075 426.172 139.275C427.772 136.425 428.572 133.25 428.572 129.75C428.572 126.25 427.772 123.1 426.172 120.3C424.572 117.45 422.372 115.25 419.572 113.7C416.772 112.1 413.622 111.3 410.122 111.3C406.622 111.3 403.472 112.1 400.672 113.7C397.872 115.25 395.672 117.45 394.072 120.3C392.472 123.1 391.672 126.25 391.672 129.75C391.672 133.25 392.472 136.425 394.072 139.275C395.672 142.075 397.872 144.275 400.672 145.875C403.472 147.425 406.622 148.2 410.122 148.2ZM470.557 115.5C475.607 115.5 479.657 116.975 482.707 119.925C485.757 122.875 487.282 127.25 487.282 133.05V156H477.907V134.25C477.907 130.75 477.082 128.125 475.432 126.375C473.782 124.575 471.432 123.675 468.382 123.675C464.932 123.675 462.207 124.725 460.207 126.825C458.207 128.875 457.207 131.85 457.207 135.75V156H447.832V115.95H456.757V121.125C458.307 119.275 460.257 117.875 462.607 116.925C464.957 115.975 467.607 115.5 470.557 115.5ZM499.174 100.35H508.549V156H499.174V100.35ZM558.354 115.95L539.604 159.225C537.854 163.575 535.729 166.625 533.229 168.375C530.729 170.175 527.704 171.075 524.154 171.075C522.154 171.075 520.179 170.75 518.229 170.1C516.279 169.45 514.679 168.55 513.429 167.4L517.179 160.5C518.079 161.35 519.129 162.025 520.329 162.525C521.579 163.025 522.829 163.275 524.079 163.275C525.729 163.275 527.079 162.85 528.129 162C529.229 161.15 530.229 159.725 531.129 157.725L531.804 156.15L514.329 115.95H524.079L536.679 145.575L549.354 115.95H558.354Z" fill="#ECAA73"/>
</svg>
