<svg width="181" height="153" viewBox="0 0 181 153" fill="none" xmlns="http://www.w3.org/2000/svg">
<g filter="url(#filter0_d)">
<path d="M96.1651 141.25C95.2028 142.917 92.7972 142.917 91.8349 141.25L13.8927 6.25C12.9304 4.58333 14.1332 2.5 16.0577 2.5L171.942 2.5C173.867 2.5 175.07 4.58333 174.107 6.25L96.1651 141.25Z" stroke="#75C27D" stroke-width="5"/>
</g>
<g filter="url(#filter1_d)">
<path d="M54.3301 142.5C52.4056 145.833 47.5944 145.833 45.6699 142.5L11.0289 82.5C9.10435 79.1667 11.51 75 15.359 75L84.641 75C88.49 75 90.8956 79.1667 88.9711 82.5L54.3301 142.5Z" fill="#ECAA73"/>
</g>
<defs>
<filter id="filter0_d" x="7.05029" y="0" width="173.899" height="153" filterUnits="userSpaceOnUse" color-interpolation-filters="sRGB">
<feFlood flood-opacity="0" result="BackgroundImageFix"/>
<feColorMatrix in="SourceAlpha" type="matrix" values="0 0 0 0 0 0 0 0 0 0 0 0 0 0 0 0 0 0 127 0"/>
<feOffset dy="4"/>
<feGaussianBlur stdDeviation="2"/>
<feColorMatrix type="matrix" values="0 0 0 0 0 0 0 0 0 0 0 0 0 0 0 0 0 0 0.25 0"/>
<feBlend mode="normal" in2="BackgroundImageFix" result="effect1_dropShadow"/>
<feBlend mode="normal" in="SourceGraphic" in2="effect1_dropShadow" result="shape"/>
</filter>
<filter id="filter1_d" x="6.35156" y="75" width="87.297" height="78" filterUnits="userSpaceOnUse" color-interpolation-filters="sRGB">
<feFlood flood-opacity="0" result="BackgroundImageFix"/>
<feColorMatrix in="SourceAlpha" type="matrix" values="0 0 0 0 0 0 0 0 0 0 0 0 0 0 0 0 0 0 127 0"/>
<feOffset dy="4"/>
<feGaussianBlur stdDeviation="2"/>
<feColorMatrix type="matrix" values="0 0 0 0 0 0 0 0 0 0 0 0 0 0 0 0 0 0 0.25 0"/>
<feBlend mode="normal" in2="BackgroundImageFix" result="effect1_dropShadow"/>
<feBlend mode="normal" in="SourceGraphic" in2="effect1_dropShadow" result="shape"/>
</filter>
</defs>
</svg>
