<svg width="760" height="262" viewBox="0 0 760 262" fill="none" xmlns="http://www.w3.org/2000/svg">
<rect x="84.5" y="5.5" width="588" height="255" rx="3.5" fill="white" stroke="#ECAA73" stroke-width="3"/>
<rect x="88.5" y="1.5" width="588" height="255" rx="3.5" fill="white" stroke="#75C27D" stroke-width="3"/>
<path d="M119.116 152.52C114.09 152.52 110.172 151.116 107.364 148.308C104.556 145.465 103.152 141.409 103.152 136.14V115.6H109.912V135.88C109.912 143.021 112.998 146.592 119.168 146.592C125.304 146.592 128.372 143.021 128.372 135.88V115.6H135.028V136.14C135.028 141.409 133.624 145.465 130.816 148.308C128.043 151.116 124.143 152.52 119.116 152.52ZM152.451 152.364C150.198 152.364 147.997 152.069 145.847 151.48C143.698 150.891 141.982 150.145 140.699 149.244L143.195 144.304C144.443 145.136 145.934 145.812 147.667 146.332C149.435 146.817 151.169 147.06 152.867 147.06C156.75 147.06 158.691 146.037 158.691 143.992C158.691 143.021 158.189 142.345 157.183 141.964C156.213 141.583 154.635 141.219 152.451 140.872C150.163 140.525 148.291 140.127 146.835 139.676C145.414 139.225 144.166 138.445 143.091 137.336C142.051 136.192 141.531 134.615 141.531 132.604C141.531 129.969 142.623 127.872 144.807 126.312C147.026 124.717 150.007 123.92 153.751 123.92C155.658 123.92 157.565 124.145 159.471 124.596C161.378 125.012 162.938 125.584 164.151 126.312L161.655 131.252C159.298 129.865 156.646 129.172 153.699 129.172C151.793 129.172 150.337 129.467 149.331 130.056C148.361 130.611 147.875 131.356 147.875 132.292C147.875 133.332 148.395 134.077 149.435 134.528C150.51 134.944 152.157 135.343 154.375 135.724C156.594 136.071 158.414 136.469 159.835 136.92C161.257 137.371 162.47 138.133 163.475 139.208C164.515 140.283 165.035 141.808 165.035 143.784C165.035 146.384 163.909 148.464 161.655 150.024C159.402 151.584 156.334 152.364 152.451 152.364ZM196.737 138.272C196.737 138.723 196.702 139.364 196.633 140.196H174.845C175.226 142.241 176.214 143.871 177.809 145.084C179.438 146.263 181.449 146.852 183.841 146.852C186.892 146.852 189.405 145.847 191.381 143.836L194.865 147.84C193.617 149.331 192.04 150.457 190.133 151.22C188.226 151.983 186.077 152.364 183.685 152.364C180.634 152.364 177.948 151.757 175.625 150.544C173.302 149.331 171.5 147.649 170.217 145.5C168.969 143.316 168.345 140.855 168.345 138.116C168.345 135.412 168.952 132.985 170.165 130.836C171.413 128.652 173.129 126.953 175.313 125.74C177.497 124.527 179.958 123.92 182.697 123.92C185.401 123.92 187.81 124.527 189.925 125.74C192.074 126.919 193.738 128.6 194.917 130.784C196.13 132.933 196.737 135.429 196.737 138.272ZM182.697 129.12C180.617 129.12 178.849 129.744 177.393 130.992C175.972 132.205 175.105 133.835 174.793 135.88H190.549C190.272 133.869 189.422 132.24 188.001 130.992C186.58 129.744 184.812 129.12 182.697 129.12ZM209.169 128.288C211.041 125.376 214.334 123.92 219.049 123.92V130.108C218.494 130.004 217.991 129.952 217.541 129.952C215.01 129.952 213.034 130.697 211.613 132.188C210.191 133.644 209.481 135.759 209.481 138.532V152H202.981V124.232H209.169V128.288ZM249.796 123.92C253.886 123.92 257.006 124.908 259.156 126.884C261.34 128.825 262.432 131.772 262.432 135.724V152H256.296V148.62C255.498 149.833 254.354 150.769 252.864 151.428C251.408 152.052 249.64 152.364 247.56 152.364C245.48 152.364 243.66 152.017 242.1 151.324C240.54 150.596 239.326 149.608 238.46 148.36C237.628 147.077 237.212 145.639 237.212 144.044C237.212 141.548 238.13 139.555 239.968 138.064C241.84 136.539 244.769 135.776 248.756 135.776H255.932V135.36C255.932 133.419 255.342 131.928 254.164 130.888C253.02 129.848 251.304 129.328 249.016 129.328C247.456 129.328 245.913 129.571 244.388 130.056C242.897 130.541 241.632 131.217 240.592 132.084L238.044 127.352C239.5 126.243 241.25 125.393 243.296 124.804C245.341 124.215 247.508 123.92 249.796 123.92ZM248.912 147.632C250.541 147.632 251.98 147.268 253.228 146.54C254.51 145.777 255.412 144.703 255.932 143.316V140.092H249.224C245.48 140.092 243.608 141.323 243.608 143.784C243.608 144.963 244.076 145.899 245.012 146.592C245.948 147.285 247.248 147.632 248.912 147.632ZM276.962 128.288C278.834 125.376 282.127 123.92 286.842 123.92V130.108C286.287 130.004 285.784 129.952 285.334 129.952C282.803 129.952 280.827 130.697 279.406 132.188C277.984 133.644 277.274 135.759 277.274 138.532V152H270.774V124.232H276.962V128.288ZM318.206 138.272C318.206 138.723 318.171 139.364 318.102 140.196H296.314C296.695 142.241 297.683 143.871 299.278 145.084C300.907 146.263 302.918 146.852 305.31 146.852C308.361 146.852 310.874 145.847 312.85 143.836L316.334 147.84C315.086 149.331 313.509 150.457 311.602 151.22C309.695 151.983 307.546 152.364 305.154 152.364C302.103 152.364 299.417 151.757 297.094 150.544C294.771 149.331 292.969 147.649 291.686 145.5C290.438 143.316 289.814 140.855 289.814 138.116C289.814 135.412 290.421 132.985 291.634 130.836C292.882 128.652 294.598 126.953 296.782 125.74C298.966 124.527 301.427 123.92 304.166 123.92C306.87 123.92 309.279 124.527 311.394 125.74C313.543 126.919 315.207 128.6 316.386 130.784C317.599 132.933 318.206 135.429 318.206 138.272ZM304.166 129.12C302.086 129.12 300.318 129.744 298.862 130.992C297.441 132.205 296.574 133.835 296.262 135.88H312.018C311.741 133.869 310.891 132.24 309.47 130.992C308.049 129.744 306.281 129.12 304.166 129.12ZM340.206 123.92C343.707 123.92 346.515 124.943 348.63 126.988C350.744 129.033 351.802 132.067 351.802 136.088V152H345.302V136.92C345.302 134.493 344.73 132.673 343.586 131.46C342.442 130.212 340.812 129.588 338.698 129.588C336.306 129.588 334.416 130.316 333.03 131.772C331.643 133.193 330.95 135.256 330.95 137.96V152H324.45V124.232H330.638V127.82C331.712 126.537 333.064 125.567 334.694 124.908C336.323 124.249 338.16 123.92 340.206 123.92ZM358.695 115.6H364.311L363.843 130.004H359.111L358.695 115.6ZM388.165 150.492C387.402 151.116 386.466 151.584 385.357 151.896C384.282 152.208 383.138 152.364 381.925 152.364C378.874 152.364 376.517 151.567 374.853 149.972C373.189 148.377 372.357 146.055 372.357 143.004V129.64H367.781V124.44H372.357V118.096H378.857V124.44H386.293V129.64H378.857V142.848C378.857 144.2 379.186 145.24 379.845 145.968C380.504 146.661 381.457 147.008 382.705 147.008C384.161 147.008 385.374 146.627 386.345 145.864L388.165 150.492ZM407.883 113.416H414.383V152H407.883V113.416ZM435.394 152.364C432.586 152.364 430.056 151.757 427.802 150.544C425.549 149.331 423.781 147.649 422.498 145.5C421.25 143.316 420.626 140.855 420.626 138.116C420.626 135.377 421.25 132.933 422.498 130.784C423.781 128.635 425.549 126.953 427.802 125.74C430.056 124.527 432.586 123.92 435.394 123.92C438.237 123.92 440.785 124.527 443.038 125.74C445.292 126.953 447.042 128.635 448.29 130.784C449.573 132.933 450.214 135.377 450.214 138.116C450.214 140.855 449.573 143.316 448.29 145.5C447.042 147.649 445.292 149.331 443.038 150.544C440.785 151.757 438.237 152.364 435.394 152.364ZM435.394 146.8C437.786 146.8 439.762 146.003 441.322 144.408C442.882 142.813 443.662 140.716 443.662 138.116C443.662 135.516 442.882 133.419 441.322 131.824C439.762 130.229 437.786 129.432 435.394 129.432C433.002 129.432 431.026 130.229 429.466 131.824C427.941 133.419 427.178 135.516 427.178 138.116C427.178 140.716 427.941 142.813 429.466 144.408C431.026 146.003 433.002 146.8 435.394 146.8ZM483.99 124.232V147.788C483.99 157.564 478.998 162.452 469.014 162.452C466.345 162.452 463.814 162.105 461.422 161.412C459.03 160.753 457.054 159.783 455.494 158.5L458.406 153.612C459.619 154.617 461.145 155.415 462.982 156.004C464.854 156.628 466.743 156.94 468.65 156.94C471.701 156.94 473.937 156.247 475.358 154.86C476.779 153.473 477.49 151.359 477.49 148.516V147.06C476.381 148.273 475.029 149.192 473.434 149.816C471.839 150.44 470.089 150.752 468.182 150.752C465.547 150.752 463.155 150.197 461.006 149.088C458.891 147.944 457.21 146.349 455.962 144.304C454.749 142.259 454.142 139.919 454.142 137.284C454.142 134.649 454.749 132.327 455.962 130.316C457.21 128.271 458.891 126.693 461.006 125.584C463.155 124.475 465.547 123.92 468.182 123.92C470.193 123.92 472.013 124.249 473.642 124.908C475.306 125.567 476.693 126.572 477.802 127.924V124.232H483.99ZM469.17 145.24C471.631 145.24 473.642 144.512 475.202 143.056C476.797 141.565 477.594 139.641 477.594 137.284C477.594 134.961 476.797 133.072 475.202 131.616C473.642 130.16 471.631 129.432 469.17 129.432C466.674 129.432 464.629 130.16 463.034 131.616C461.474 133.072 460.694 134.961 460.694 137.284C460.694 139.641 461.474 141.565 463.034 143.056C464.629 144.512 466.674 145.24 469.17 145.24ZM520.095 124.232V147.788C520.095 157.564 515.103 162.452 505.119 162.452C502.45 162.452 499.919 162.105 497.527 161.412C495.135 160.753 493.159 159.783 491.599 158.5L494.511 153.612C495.725 154.617 497.25 155.415 499.087 156.004C500.959 156.628 502.849 156.94 504.755 156.94C507.806 156.94 510.042 156.247 511.463 154.86C512.885 153.473 513.595 151.359 513.595 148.516V147.06C512.486 148.273 511.134 149.192 509.539 149.816C507.945 150.44 506.194 150.752 504.287 150.752C501.653 150.752 499.261 150.197 497.111 149.088C494.997 147.944 493.315 146.349 492.067 144.304C490.854 142.259 490.247 139.919 490.247 137.284C490.247 134.649 490.854 132.327 492.067 130.316C493.315 128.271 494.997 126.693 497.111 125.584C499.261 124.475 501.653 123.92 504.287 123.92C506.298 123.92 508.118 124.249 509.747 124.908C511.411 125.567 512.798 126.572 513.907 127.924V124.232H520.095ZM505.275 145.24C507.737 145.24 509.747 144.512 511.307 143.056C512.902 141.565 513.699 139.641 513.699 137.284C513.699 134.961 512.902 133.072 511.307 131.616C509.747 130.16 507.737 129.432 505.275 129.432C502.779 129.432 500.734 130.16 499.139 131.616C497.579 133.072 496.799 134.961 496.799 137.284C496.799 139.641 497.579 141.565 499.139 143.056C500.734 144.512 502.779 145.24 505.275 145.24ZM554.745 138.272C554.745 138.723 554.71 139.364 554.641 140.196H532.853C533.234 142.241 534.222 143.871 535.817 145.084C537.446 146.263 539.457 146.852 541.849 146.852C544.9 146.852 547.413 145.847 549.389 143.836L552.873 147.84C551.625 149.331 550.048 150.457 548.141 151.22C546.234 151.983 544.085 152.364 541.693 152.364C538.642 152.364 535.956 151.757 533.633 150.544C531.31 149.331 529.508 147.649 528.225 145.5C526.977 143.316 526.353 140.855 526.353 138.116C526.353 135.412 526.96 132.985 528.173 130.836C529.421 128.652 531.137 126.953 533.321 125.74C535.505 124.527 537.966 123.92 540.705 123.92C543.409 123.92 545.818 124.527 547.933 125.74C550.082 126.919 551.746 128.6 552.925 130.784C554.138 132.933 554.745 135.429 554.745 138.272ZM540.705 129.12C538.625 129.12 536.857 129.744 535.401 130.992C533.98 132.205 533.113 133.835 532.801 135.88H548.557C548.28 133.869 547.43 132.24 546.009 130.992C544.588 129.744 542.82 129.12 540.705 129.12ZM588.185 113.416V152H581.945V148.412C580.87 149.729 579.535 150.717 577.941 151.376C576.381 152.035 574.647 152.364 572.741 152.364C570.071 152.364 567.662 151.775 565.513 150.596C563.398 149.417 561.734 147.753 560.521 145.604C559.307 143.42 558.701 140.924 558.701 138.116C558.701 135.308 559.307 132.829 560.521 130.68C561.734 128.531 563.398 126.867 565.513 125.688C567.662 124.509 570.071 123.92 572.741 123.92C574.578 123.92 576.259 124.232 577.785 124.856C579.31 125.48 580.61 126.416 581.685 127.664V113.416H588.185ZM573.521 146.8C575.081 146.8 576.485 146.453 577.733 145.76C578.981 145.032 579.969 144.009 580.697 142.692C581.425 141.375 581.789 139.849 581.789 138.116C581.789 136.383 581.425 134.857 580.697 133.54C579.969 132.223 578.981 131.217 577.733 130.524C576.485 129.796 575.081 129.432 573.521 129.432C571.961 129.432 570.557 129.796 569.309 130.524C568.061 131.217 567.073 132.223 566.345 133.54C565.617 134.857 565.253 136.383 565.253 138.116C565.253 139.849 565.617 141.375 566.345 142.692C567.073 144.009 568.061 145.032 569.309 145.76C570.557 146.453 571.961 146.8 573.521 146.8ZM611.059 124.232H617.559V152H611.059V124.232ZM614.335 119.656C613.156 119.656 612.168 119.292 611.371 118.564C610.574 117.801 610.175 116.865 610.175 115.756C610.175 114.647 610.574 113.728 611.371 113C612.168 112.237 613.156 111.856 614.335 111.856C615.514 111.856 616.502 112.22 617.299 112.948C618.096 113.641 618.495 114.525 618.495 115.6C618.495 116.744 618.096 117.715 617.299 118.512C616.536 119.275 615.548 119.656 614.335 119.656ZM641.846 123.92C645.348 123.92 648.156 124.943 650.27 126.988C652.385 129.033 653.442 132.067 653.442 136.088V152H646.942V136.92C646.942 134.493 646.37 132.673 645.226 131.46C644.082 130.212 642.453 129.588 640.338 129.588C637.946 129.588 636.057 130.316 634.67 131.772C633.284 133.193 632.59 135.256 632.59 137.96V152H626.09V124.232H632.278V127.82C633.353 126.537 634.705 125.567 636.334 124.908C637.964 124.249 639.801 123.92 641.846 123.92Z" fill="#75C27D"/>
<path d="M121.116 152.52C116.09 152.52 112.172 151.116 109.364 148.308C106.556 145.465 105.152 141.409 105.152 136.14V115.6H111.912V135.88C111.912 143.021 114.998 146.592 121.168 146.592C127.304 146.592 130.372 143.021 130.372 135.88V115.6H137.028V136.14C137.028 141.409 135.624 145.465 132.816 148.308C130.043 151.116 126.143 152.52 121.116 152.52ZM154.451 152.364C152.198 152.364 149.997 152.069 147.847 151.48C145.698 150.891 143.982 150.145 142.699 149.244L145.195 144.304C146.443 145.136 147.934 145.812 149.667 146.332C151.435 146.817 153.169 147.06 154.867 147.06C158.75 147.06 160.691 146.037 160.691 143.992C160.691 143.021 160.189 142.345 159.183 141.964C158.213 141.583 156.635 141.219 154.451 140.872C152.163 140.525 150.291 140.127 148.835 139.676C147.414 139.225 146.166 138.445 145.091 137.336C144.051 136.192 143.531 134.615 143.531 132.604C143.531 129.969 144.623 127.872 146.807 126.312C149.026 124.717 152.007 123.92 155.751 123.92C157.658 123.92 159.565 124.145 161.471 124.596C163.378 125.012 164.938 125.584 166.151 126.312L163.655 131.252C161.298 129.865 158.646 129.172 155.699 129.172C153.793 129.172 152.337 129.467 151.331 130.056C150.361 130.611 149.875 131.356 149.875 132.292C149.875 133.332 150.395 134.077 151.435 134.528C152.51 134.944 154.157 135.343 156.375 135.724C158.594 136.071 160.414 136.469 161.835 136.92C163.257 137.371 164.47 138.133 165.475 139.208C166.515 140.283 167.035 141.808 167.035 143.784C167.035 146.384 165.909 148.464 163.655 150.024C161.402 151.584 158.334 152.364 154.451 152.364ZM198.737 138.272C198.737 138.723 198.702 139.364 198.633 140.196H176.845C177.226 142.241 178.214 143.871 179.809 145.084C181.438 146.263 183.449 146.852 185.841 146.852C188.892 146.852 191.405 145.847 193.381 143.836L196.865 147.84C195.617 149.331 194.04 150.457 192.133 151.22C190.226 151.983 188.077 152.364 185.685 152.364C182.634 152.364 179.948 151.757 177.625 150.544C175.302 149.331 173.5 147.649 172.217 145.5C170.969 143.316 170.345 140.855 170.345 138.116C170.345 135.412 170.952 132.985 172.165 130.836C173.413 128.652 175.129 126.953 177.313 125.74C179.497 124.527 181.958 123.92 184.697 123.92C187.401 123.92 189.81 124.527 191.925 125.74C194.074 126.919 195.738 128.6 196.917 130.784C198.13 132.933 198.737 135.429 198.737 138.272ZM184.697 129.12C182.617 129.12 180.849 129.744 179.393 130.992C177.972 132.205 177.105 133.835 176.793 135.88H192.549C192.272 133.869 191.422 132.24 190.001 130.992C188.58 129.744 186.812 129.12 184.697 129.12ZM211.169 128.288C213.041 125.376 216.334 123.92 221.049 123.92V130.108C220.494 130.004 219.991 129.952 219.541 129.952C217.01 129.952 215.034 130.697 213.613 132.188C212.191 133.644 211.481 135.759 211.481 138.532V152H204.981V124.232H211.169V128.288ZM251.796 123.92C255.886 123.92 259.006 124.908 261.156 126.884C263.34 128.825 264.432 131.772 264.432 135.724V152H258.296V148.62C257.498 149.833 256.354 150.769 254.864 151.428C253.408 152.052 251.64 152.364 249.56 152.364C247.48 152.364 245.66 152.017 244.1 151.324C242.54 150.596 241.326 149.608 240.46 148.36C239.628 147.077 239.212 145.639 239.212 144.044C239.212 141.548 240.13 139.555 241.968 138.064C243.84 136.539 246.769 135.776 250.756 135.776H257.932V135.36C257.932 133.419 257.342 131.928 256.164 130.888C255.02 129.848 253.304 129.328 251.016 129.328C249.456 129.328 247.913 129.571 246.388 130.056C244.897 130.541 243.632 131.217 242.592 132.084L240.044 127.352C241.5 126.243 243.25 125.393 245.296 124.804C247.341 124.215 249.508 123.92 251.796 123.92ZM250.912 147.632C252.541 147.632 253.98 147.268 255.228 146.54C256.51 145.777 257.412 144.703 257.932 143.316V140.092H251.224C247.48 140.092 245.608 141.323 245.608 143.784C245.608 144.963 246.076 145.899 247.012 146.592C247.948 147.285 249.248 147.632 250.912 147.632ZM278.962 128.288C280.834 125.376 284.127 123.92 288.842 123.92V130.108C288.287 130.004 287.784 129.952 287.334 129.952C284.803 129.952 282.827 130.697 281.406 132.188C279.984 133.644 279.274 135.759 279.274 138.532V152H272.774V124.232H278.962V128.288ZM320.206 138.272C320.206 138.723 320.171 139.364 320.102 140.196H298.314C298.695 142.241 299.683 143.871 301.278 145.084C302.907 146.263 304.918 146.852 307.31 146.852C310.361 146.852 312.874 145.847 314.85 143.836L318.334 147.84C317.086 149.331 315.509 150.457 313.602 151.22C311.695 151.983 309.546 152.364 307.154 152.364C304.103 152.364 301.417 151.757 299.094 150.544C296.771 149.331 294.969 147.649 293.686 145.5C292.438 143.316 291.814 140.855 291.814 138.116C291.814 135.412 292.421 132.985 293.634 130.836C294.882 128.652 296.598 126.953 298.782 125.74C300.966 124.527 303.427 123.92 306.166 123.92C308.87 123.92 311.279 124.527 313.394 125.74C315.543 126.919 317.207 128.6 318.386 130.784C319.599 132.933 320.206 135.429 320.206 138.272ZM306.166 129.12C304.086 129.12 302.318 129.744 300.862 130.992C299.441 132.205 298.574 133.835 298.262 135.88H314.018C313.741 133.869 312.891 132.24 311.47 130.992C310.049 129.744 308.281 129.12 306.166 129.12ZM342.206 123.92C345.707 123.92 348.515 124.943 350.63 126.988C352.744 129.033 353.802 132.067 353.802 136.088V152H347.302V136.92C347.302 134.493 346.73 132.673 345.586 131.46C344.442 130.212 342.812 129.588 340.698 129.588C338.306 129.588 336.416 130.316 335.03 131.772C333.643 133.193 332.95 135.256 332.95 137.96V152H326.45V124.232H332.638V127.82C333.712 126.537 335.064 125.567 336.694 124.908C338.323 124.249 340.16 123.92 342.206 123.92ZM360.695 115.6H366.311L365.843 130.004H361.111L360.695 115.6ZM390.165 150.492C389.402 151.116 388.466 151.584 387.357 151.896C386.282 152.208 385.138 152.364 383.925 152.364C380.874 152.364 378.517 151.567 376.853 149.972C375.189 148.377 374.357 146.055 374.357 143.004V129.64H369.781V124.44H374.357V118.096H380.857V124.44H388.293V129.64H380.857V142.848C380.857 144.2 381.186 145.24 381.845 145.968C382.504 146.661 383.457 147.008 384.705 147.008C386.161 147.008 387.374 146.627 388.345 145.864L390.165 150.492ZM409.883 113.416H416.383V152H409.883V113.416ZM437.394 152.364C434.586 152.364 432.056 151.757 429.802 150.544C427.549 149.331 425.781 147.649 424.498 145.5C423.25 143.316 422.626 140.855 422.626 138.116C422.626 135.377 423.25 132.933 424.498 130.784C425.781 128.635 427.549 126.953 429.802 125.74C432.056 124.527 434.586 123.92 437.394 123.92C440.237 123.92 442.785 124.527 445.038 125.74C447.292 126.953 449.042 128.635 450.29 130.784C451.573 132.933 452.214 135.377 452.214 138.116C452.214 140.855 451.573 143.316 450.29 145.5C449.042 147.649 447.292 149.331 445.038 150.544C442.785 151.757 440.237 152.364 437.394 152.364ZM437.394 146.8C439.786 146.8 441.762 146.003 443.322 144.408C444.882 142.813 445.662 140.716 445.662 138.116C445.662 135.516 444.882 133.419 443.322 131.824C441.762 130.229 439.786 129.432 437.394 129.432C435.002 129.432 433.026 130.229 431.466 131.824C429.941 133.419 429.178 135.516 429.178 138.116C429.178 140.716 429.941 142.813 431.466 144.408C433.026 146.003 435.002 146.8 437.394 146.8ZM485.99 124.232V147.788C485.99 157.564 480.998 162.452 471.014 162.452C468.345 162.452 465.814 162.105 463.422 161.412C461.03 160.753 459.054 159.783 457.494 158.5L460.406 153.612C461.619 154.617 463.145 155.415 464.982 156.004C466.854 156.628 468.743 156.94 470.65 156.94C473.701 156.94 475.937 156.247 477.358 154.86C478.779 153.473 479.49 151.359 479.49 148.516V147.06C478.381 148.273 477.029 149.192 475.434 149.816C473.839 150.44 472.089 150.752 470.182 150.752C467.547 150.752 465.155 150.197 463.006 149.088C460.891 147.944 459.21 146.349 457.962 144.304C456.749 142.259 456.142 139.919 456.142 137.284C456.142 134.649 456.749 132.327 457.962 130.316C459.21 128.271 460.891 126.693 463.006 125.584C465.155 124.475 467.547 123.92 470.182 123.92C472.193 123.92 474.013 124.249 475.642 124.908C477.306 125.567 478.693 126.572 479.802 127.924V124.232H485.99ZM471.17 145.24C473.631 145.24 475.642 144.512 477.202 143.056C478.797 141.565 479.594 139.641 479.594 137.284C479.594 134.961 478.797 133.072 477.202 131.616C475.642 130.16 473.631 129.432 471.17 129.432C468.674 129.432 466.629 130.16 465.034 131.616C463.474 133.072 462.694 134.961 462.694 137.284C462.694 139.641 463.474 141.565 465.034 143.056C466.629 144.512 468.674 145.24 471.17 145.24ZM522.095 124.232V147.788C522.095 157.564 517.103 162.452 507.119 162.452C504.45 162.452 501.919 162.105 499.527 161.412C497.135 160.753 495.159 159.783 493.599 158.5L496.511 153.612C497.725 154.617 499.25 155.415 501.087 156.004C502.959 156.628 504.849 156.94 506.755 156.94C509.806 156.94 512.042 156.247 513.463 154.86C514.885 153.473 515.595 151.359 515.595 148.516V147.06C514.486 148.273 513.134 149.192 511.539 149.816C509.945 150.44 508.194 150.752 506.287 150.752C503.653 150.752 501.261 150.197 499.111 149.088C496.997 147.944 495.315 146.349 494.067 144.304C492.854 142.259 492.247 139.919 492.247 137.284C492.247 134.649 492.854 132.327 494.067 130.316C495.315 128.271 496.997 126.693 499.111 125.584C501.261 124.475 503.653 123.92 506.287 123.92C508.298 123.92 510.118 124.249 511.747 124.908C513.411 125.567 514.798 126.572 515.907 127.924V124.232H522.095ZM507.275 145.24C509.737 145.24 511.747 144.512 513.307 143.056C514.902 141.565 515.699 139.641 515.699 137.284C515.699 134.961 514.902 133.072 513.307 131.616C511.747 130.16 509.737 129.432 507.275 129.432C504.779 129.432 502.734 130.16 501.139 131.616C499.579 133.072 498.799 134.961 498.799 137.284C498.799 139.641 499.579 141.565 501.139 143.056C502.734 144.512 504.779 145.24 507.275 145.24ZM556.745 138.272C556.745 138.723 556.71 139.364 556.641 140.196H534.853C535.234 142.241 536.222 143.871 537.817 145.084C539.446 146.263 541.457 146.852 543.849 146.852C546.9 146.852 549.413 145.847 551.389 143.836L554.873 147.84C553.625 149.331 552.048 150.457 550.141 151.22C548.234 151.983 546.085 152.364 543.693 152.364C540.642 152.364 537.956 151.757 535.633 150.544C533.31 149.331 531.508 147.649 530.225 145.5C528.977 143.316 528.353 140.855 528.353 138.116C528.353 135.412 528.96 132.985 530.173 130.836C531.421 128.652 533.137 126.953 535.321 125.74C537.505 124.527 539.966 123.92 542.705 123.92C545.409 123.92 547.818 124.527 549.933 125.74C552.082 126.919 553.746 128.6 554.925 130.784C556.138 132.933 556.745 135.429 556.745 138.272ZM542.705 129.12C540.625 129.12 538.857 129.744 537.401 130.992C535.98 132.205 535.113 133.835 534.801 135.88H550.557C550.28 133.869 549.43 132.24 548.009 130.992C546.588 129.744 544.82 129.12 542.705 129.12ZM590.185 113.416V152H583.945V148.412C582.87 149.729 581.535 150.717 579.941 151.376C578.381 152.035 576.647 152.364 574.741 152.364C572.071 152.364 569.662 151.775 567.513 150.596C565.398 149.417 563.734 147.753 562.521 145.604C561.307 143.42 560.701 140.924 560.701 138.116C560.701 135.308 561.307 132.829 562.521 130.68C563.734 128.531 565.398 126.867 567.513 125.688C569.662 124.509 572.071 123.92 574.741 123.92C576.578 123.92 578.259 124.232 579.785 124.856C581.31 125.48 582.61 126.416 583.685 127.664V113.416H590.185ZM575.521 146.8C577.081 146.8 578.485 146.453 579.733 145.76C580.981 145.032 581.969 144.009 582.697 142.692C583.425 141.375 583.789 139.849 583.789 138.116C583.789 136.383 583.425 134.857 582.697 133.54C581.969 132.223 580.981 131.217 579.733 130.524C578.485 129.796 577.081 129.432 575.521 129.432C573.961 129.432 572.557 129.796 571.309 130.524C570.061 131.217 569.073 132.223 568.345 133.54C567.617 134.857 567.253 136.383 567.253 138.116C567.253 139.849 567.617 141.375 568.345 142.692C569.073 144.009 570.061 145.032 571.309 145.76C572.557 146.453 573.961 146.8 575.521 146.8ZM613.059 124.232H619.559V152H613.059V124.232ZM616.335 119.656C615.156 119.656 614.168 119.292 613.371 118.564C612.574 117.801 612.175 116.865 612.175 115.756C612.175 114.647 612.574 113.728 613.371 113C614.168 112.237 615.156 111.856 616.335 111.856C617.514 111.856 618.502 112.22 619.299 112.948C620.096 113.641 620.495 114.525 620.495 115.6C620.495 116.744 620.096 117.715 619.299 118.512C618.536 119.275 617.548 119.656 616.335 119.656ZM643.846 123.92C647.348 123.92 650.156 124.943 652.27 126.988C654.385 129.033 655.442 132.067 655.442 136.088V152H648.942V136.92C648.942 134.493 648.37 132.673 647.226 131.46C646.082 130.212 644.453 129.588 642.338 129.588C639.946 129.588 638.057 130.316 636.67 131.772C635.284 133.193 634.59 135.256 634.59 137.96V152H628.09V124.232H634.278V127.82C635.353 126.537 636.705 125.567 638.334 124.908C639.964 124.249 641.801 123.92 643.846 123.92Z" fill="#ECAA73"/>
</svg>
